<?xml version="1.0" encoding="UTF-8"?>
<svg id="Capa_2" xmlns="http://www.w3.org/2000/svg" xmlns:xlink="http://www.w3.org/1999/xlink" viewBox="0 0 647.57 395.97">
  <defs>
    <style>
      .cls-1 {
        font-size: 38.84px;
      }

      .cls-1, .cls-2 {
        font-family: Helvetica-Condensed-Bold, 'Helvetica Condensed';
        font-weight: 700;
      }

      .cls-1, .cls-2, .cls-3, .cls-4 {
        fill: #453a36;
      }

      .cls-2 {
        font-size: 48.55px;
      }

      .cls-3, .cls-5 {
        font-family: "Helvetica-Condensed", 'Helvetica Condensed';
        font-size: 37.38px;
      }

      .cls-6 {
        stroke-width: 2.13px;
      }

      .cls-6, .cls-7 {
        fill: none;
        stroke: #453a36;
        stroke-miterlimit: 10;
      }

      .cls-7 {
        stroke-width: 2.83px;
      }

      .cls-4 {
        font-family: "Helvetica Condensed-Light", 'helvetica Semi Condensed';
        font-size: 30.92px;
        font-weight: 300;
      }

      .cls-8 {
        fill: #90414b;
      }

      .cls-5 {
        fill: #fff;
      }

      .cls-9 {
        fill: #d5d3d2;
      }
    </style>
  </defs>
  <g id="INFO">
    <line class="cls-6" x1="36.69" y1="249.71" x2="628.48" y2="249.71"/>
    <line class="cls-6" x1="36.69" y1="201.18" x2="628.48" y2="201.18"/>
    <line class="cls-6" x1="36.69" y1="152.66" x2="628.48" y2="152.66"/>
    <line class="cls-6" x1="36.69" y1="104.13" x2="628.48" y2="104.13"/>
    <line class="cls-6" x1="36.69" y1="55.6" x2="628.48" y2="55.6"/>
    <rect class="cls-9" x="4.02" y="347.39" width="360.35" height="48.57"/>
    <rect class="cls-8" x="379.87" y="346.76" width="250.95" height="48.57"/>
    <rect class="cls-8" x="486.22" y="329.74" width="35.07" height="36.96" transform="translate(393.77 -254.21) rotate(45)"/>
    <rect class="cls-9" x="175.43" y="329.74" width="35.07" height="36.96" transform="translate(302.74 -34.45) rotate(45)"/>
    <text class="cls-3" transform="translate(60.81 383.13)"><tspan x="0" y="0">Iglesia San Pedro </tspan></text>
    <text class="cls-5" transform="translate(391.12 383.6)"><tspan x="0" y="0">Iglesia Chiu Chiu </tspan></text>
    <text class="cls-2" transform="translate(466.76 42.48)"><tspan x="0" y="0">9 m</tspan></text>
    <text class="cls-1" transform="translate(139.69 44.39)"><tspan x="0" y="0">14,31 m</tspan></text>
    <g>
      <text class="cls-4" transform="translate(8.35 306.78)"><tspan x="0" y="0">0</tspan></text>
      <text class="cls-4" transform="translate(9.12 258.25)"><tspan x="0" y="0">3</tspan></text>
      <text class="cls-4" transform="translate(9.21 209.72)"><tspan x="0" y="0">6</tspan></text>
      <text class="cls-4" transform="translate(9.09 161.19)"><tspan x="0" y="0">9</tspan></text>
      <text class="cls-4" transform="translate(0 112.66)"><tspan x="0" y="0">12</tspan></text>
      <text class="cls-4" transform="translate(.22 64.13)"><tspan x="0" y="0">15</tspan></text>
    </g>
    <line class="cls-7" x1="36.69" y1="298.24" x2="628.48" y2="298.24"/>
    <image width="540" height="236" transform="translate(46.65 61.97)" href="iglesias.png"/>
  </g>
</svg>