<?xml version="1.0" encoding="UTF-8"?>
<svg id="Capa_2" xmlns="http://www.w3.org/2000/svg" xmlns:xlink="http://www.w3.org/1999/xlink" viewBox="0 0 842 982.08">
  <defs>
    <style>
      .cls-1 {
        font-family: Helvetica-Condensed-Oblique, 'Helvetica Condensed';
        font-size: 43.62px;
        font-style: oblique;
      }
    </style>
  </defs>
  <g id="Diseño">
    <text class="cls-1" transform="translate(115.29 412.27)"><tspan x="0" y="0">Adobe</tspan></text>
    <text class="cls-1" transform="translate(570.39 412.27)"><tspan x="0" y="0">Piedra local</tspan></text>
    <text class="cls-1" transform="translate(133.49 927.22)"><tspan x="0" y="0">Paja</tspan></text>
    <g>
      <path d="M523.79,894.51h6.4l1.24,28.75h0l13.45-28.75h6.38l-6.93,32.71h-3.64l6.45-30.41h.02l-14.42,30.41h-4.31l-1.52-30.41h.02l-6.45,30.41h-3.64l6.94-32.71Z"/>
      <path d="M553.47,909.54l.17-.85c.89-4.2,3.74-6.3,8.54-6.3,2.17,0,3.71.53,4.62,1.58.91,1.05,1.18,2.44.81,4.17l-3.18,15.02c-.21,1.04.14,1.55,1.07,1.55.22,0,.46-.01.7-.04l-.53,2.49c-.45.17-1,.25-1.63.25-1.24,0-2.06-.27-2.46-.81-.38-.55-.45-1.5-.19-2.85-.78,1.22-1.77,2.21-2.98,2.98-1.19.75-2.36,1.13-3.51,1.13-4.17,0-5.77-2.32-4.79-6.96.64-3,2.36-5.03,5.15-6.09l6.79-2.53c.6-.23,1.04-.5,1.34-.81.3-.31.55-.94.75-1.9.38-1.84.3-3.02-.25-3.51-.57-.5-1.48-.75-2.74-.75s-2.31.27-2.98.81c-.67.54-1.13,1.4-1.38,2.58l-.17.85h-3.13ZM562.91,914.1c-1.37.74-3.36,1.58-5.99,2.53-1.71.65-2.8,2.11-3.29,4.37-.55,2.63.32,3.94,2.63,3.94,1.25,0,2.39-.47,3.42-1.41,1.02-.95,1.68-2.09,1.96-3.43l1.27-6.01Z"/>
      <path d="M586.34,905.79l2.39-11.29h3.46l-6.94,32.71h-3.33l.73-3.45c-.93,1.33-1.89,2.35-2.88,3.05-1,.7-2.31,1.04-3.95,1.04-2.25,0-3.81-.93-4.67-2.79-.84-1.87-.67-5.59.51-11.14.71-3.34,1.92-6.09,3.64-8.26,1.7-2.19,3.72-3.28,6.05-3.28s4.03,1.14,4.99,3.41ZM574.96,915.21c-.81,3.76-.99,6.33-.55,7.69.45,1.36,1.51,2.04,3.16,2.04,1.48,0,2.78-.67,3.9-2,1.12-1.35,1.92-3.12,2.39-5.32l.66-3.11c.68-3.22.79-5.56.34-7.01-.44-1.46-1.49-2.19-3.13-2.19-3.11,0-5.37,3.3-6.76,9.9Z"/>
      <path d="M596.54,915.35l-.38,1.81c-.64,3.02-.67,5.08-.09,6.16.6,1.08,1.56,1.62,2.89,1.62s2.38-.42,3.25-1.26c.89-.85,1.51-1.98,1.85-3.39.08-.43.19-.82.3-1.17h3.15l-.19.83c-.47,2.23-1.51,4.1-3.11,5.62-1.58,1.52-3.57,2.28-5.97,2.28-5.27,0-7.01-4.25-5.22-12.74.84-3.93,2.17-7.04,4.01-9.31,1.83-2.29,4.02-3.43,6.56-3.43,2.74,0,4.51.89,5.31,2.66.79,1.78.65,5.21-.43,10.31h-11.93ZM605.5,912.52c.62-2.91.67-4.84.13-5.79-.53-.95-1.37-1.43-2.52-1.43-1.61,0-2.86.56-3.75,1.68-.88,1.12-1.63,2.97-2.24,5.54h8.38Z"/>
      <path d="M611.51,927.22l5.13-24.19h3.35l-.8,3.79c1.88-2.95,4.3-4.43,7.29-4.43.31,0,.62.01.92.04l-.73,3.43c-.28-.09-.76-.13-1.43-.13-1.8,0-3.34.6-4.6,1.79-1.25,1.19-2.08,2.78-2.49,4.75l-3.17,14.95h-3.46Z"/>
      <path d="M628.52,909.54l.17-.85c.89-4.2,3.74-6.3,8.54-6.3,2.17,0,3.71.53,4.62,1.58s1.18,2.44.81,4.17l-3.18,15.02c-.21,1.04.15,1.55,1.08,1.55.22,0,.46-.01.7-.04l-.53,2.49c-.45.17-1,.25-1.63.25-1.25,0-2.06-.27-2.46-.81-.38-.55-.45-1.5-.19-2.85-.78,1.22-1.77,2.21-2.98,2.98-1.19.75-2.36,1.13-3.51,1.13-4.17,0-5.77-2.32-4.79-6.96.64-3,2.36-5.03,5.15-6.09l6.79-2.53c.6-.23,1.04-.5,1.34-.81.3-.31.55-.94.75-1.9.38-1.84.3-3.02-.26-3.51-.57-.5-1.48-.75-2.74-.75s-2.31.27-2.98.81c-.67.54-1.13,1.4-1.38,2.58l-.17.85h-3.13ZM637.96,914.1c-1.37.74-3.36,1.58-5.99,2.53-1.71.65-2.8,2.11-3.29,4.37-.55,2.63.32,3.94,2.63,3.94,1.25,0,2.39-.47,3.42-1.41,1.02-.95,1.68-2.09,1.96-3.43l1.27-6.01Z"/>
      <path d="M672.29,905.79l2.39-11.29h3.46l-6.94,32.71h-3.33l.73-3.45c-.92,1.33-1.89,2.35-2.88,3.05-1,.7-2.31,1.04-3.95,1.04-2.25,0-3.81-.93-4.68-2.79-.84-1.87-.67-5.59.51-11.14.71-3.34,1.92-6.09,3.64-8.26,1.7-2.19,3.72-3.28,6.05-3.28s4.03,1.14,4.98,3.41ZM660.91,915.21c-.81,3.76-.99,6.33-.55,7.69.45,1.36,1.51,2.04,3.16,2.04,1.48,0,2.78-.67,3.9-2,1.12-1.35,1.92-3.12,2.39-5.32l.66-3.11c.68-3.22.79-5.56.34-7.01-.44-1.46-1.49-2.19-3.13-2.19-3.11,0-5.37,3.3-6.76,9.9Z"/>
      <path d="M682.5,915.35l-.38,1.81c-.64,3.02-.67,5.08-.08,6.16.6,1.08,1.56,1.62,2.89,1.62s2.38-.42,3.25-1.26c.89-.85,1.51-1.98,1.85-3.39.09-.43.19-.82.3-1.17h3.15l-.19.83c-.47,2.23-1.51,4.1-3.11,5.62-1.58,1.52-3.57,2.28-5.97,2.28-5.27,0-7.01-4.25-5.22-12.74.84-3.93,2.17-7.04,4.01-9.31,1.83-2.29,4.02-3.43,6.56-3.43,2.74,0,4.51.89,5.31,2.66.79,1.78.65,5.21-.43,10.31h-11.93ZM691.46,912.52c.62-2.91.67-4.84.13-5.79-.53-.95-1.37-1.43-2.52-1.43-1.61,0-2.86.56-3.75,1.68-.88,1.12-1.63,2.97-2.24,5.54h8.38Z"/>
      <path d="M720.96,918.66h3.29c-.68,2.92-1.84,5.19-3.48,6.79s-3.63,2.41-5.99,2.41c-2.79,0-4.65-.93-5.59-2.79-.92-1.86-.91-5.04.04-9.54.96-4.52,2.32-7.83,4.07-9.95,1.78-2.13,4.11-3.19,7.01-3.19,2.24,0,3.85.75,4.81,2.24.97,1.49,1.19,3.47.66,5.94h-3.29c.74-3.51-.2-5.26-2.81-5.26-1.67,0-3.04.77-4.11,2.32-1.06,1.53-2,4.21-2.81,8.03-.74,3.49-.88,5.91-.43,7.26.47,1.35,1.48,2.02,3.05,2.02,1.29,0,2.36-.41,3.22-1.23.87-.82,1.65-2.51,2.34-5.05Z"/>
      <path d="M730.22,909.54l.17-.85c.89-4.2,3.74-6.3,8.54-6.3,2.17,0,3.71.53,4.62,1.58.91,1.05,1.18,2.44.81,4.17l-3.18,15.02c-.21,1.04.14,1.55,1.07,1.55.22,0,.46-.01.7-.04l-.53,2.49c-.45.17-1,.25-1.63.25-1.24,0-2.06-.27-2.46-.81-.38-.55-.45-1.5-.19-2.85-.78,1.22-1.77,2.21-2.98,2.98-1.19.75-2.36,1.13-3.51,1.13-4.17,0-5.77-2.32-4.79-6.96.64-3,2.36-5.03,5.15-6.09l6.79-2.53c.6-.23,1.04-.5,1.34-.81.3-.31.55-.94.75-1.9.38-1.84.3-3.02-.25-3.51-.57-.5-1.48-.75-2.74-.75s-2.31.27-2.98.81c-.67.54-1.13,1.4-1.38,2.58l-.17.85h-3.13ZM739.66,914.1c-1.37.74-3.36,1.58-5.99,2.53-1.71.65-2.8,2.11-3.29,4.37-.55,2.63.32,3.94,2.63,3.94,1.25,0,2.39-.47,3.42-1.41,1.02-.95,1.68-2.09,1.96-3.43l1.27-6.01Z"/>
      <path d="M759.68,918.66h3.29c-.68,2.92-1.84,5.19-3.48,6.79-1.63,1.6-3.63,2.41-5.99,2.41-2.79,0-4.65-.93-5.59-2.79-.92-1.86-.91-5.04.04-9.54.97-4.52,2.32-7.83,4.07-9.95,1.78-2.13,4.11-3.19,7.01-3.19,2.24,0,3.85.75,4.81,2.24.97,1.49,1.19,3.47.66,5.94h0-3.29c.74-3.51-.2-5.26-2.81-5.26-1.67,0-3.04.77-4.11,2.32-1.06,1.53-2,4.21-2.81,8.03-.74,3.49-.88,5.91-.43,7.26.47,1.35,1.48,2.02,3.05,2.02,1.29,0,2.36-.41,3.22-1.23.87-.82,1.65-2.51,2.34-5.05Z"/>
      <path d="M767.83,905.94l.62-2.92h3.35l1.37-6.47h3.44l-1.37,6.47h4.09l-.62,2.92h-4.09l-3.5,16.48c-.16.74-.17,1.24-.04,1.49.14.25.61.38,1.41.38h2.22l-.62,2.92h-3.83c-1.4,0-2.3-.28-2.68-.85-.37-.58-.4-1.6-.08-3.05l3.68-17.38h-3.35Z"/>
      <path d="M783.48,903.02h3.46l-3.99,18.83c-.2.99-.13,1.76.21,2.3.34.53,1.11.79,2.32.79,1.3,0,2.56-.5,3.76-1.49,1.22-1.01,2.08-2.71,2.57-5.11l3.25-15.31h3.46l-5.13,24.19h-3.46l.73-3.45c-1.7,2.73-4.01,4.09-6.92,4.09-3.68,0-5.07-2.1-4.19-6.3l3.93-18.53Z"/>
      <path d="M800.29,920.02h3.29c-.34,1.58-.33,2.79.02,3.64.38.85,1.4,1.28,3.04,1.28,3.09,0,4.92-1.35,5.48-4.05.23-1.08.06-1.92-.51-2.51-.55-.61-1.64-1.23-3.27-1.85-2.82-1.06-4.55-2.13-5.21-3.19-.65-1.07-.81-2.4-.47-4,.48-2.27,1.53-4,3.15-5.18,1.6-1.18,3.44-1.77,5.51-1.77,4.95,0,6.93,2.38,5.92,7.16h-3.29c.3-1.39.25-2.44-.13-3.15-.37-.72-1.32-1.09-2.85-1.09-2.61,0-4.18,1.24-4.7,3.71-.2.92-.06,1.7.4,2.34.47.64,1.77,1.41,3.92,2.3,2.5,1.05,4.06,2.06,4.7,3.02.65.97.82,2.21.49,3.75-.51,2.41-1.68,4.26-3.49,5.54-1.8,1.26-3.86,1.9-6.18,1.9s-4.02-.6-5.11-1.81c-1.08-1.22-1.41-2.83-.98-4.81l.25-1.21h0Z"/>
      <path d="M818.72,931.71c1.46-.33,2.48-1.83,3.04-4.49h-2.11l.94-4.43h3.96l-.93,4.39c-.74,3.52-2.51,5.69-5.32,6.52l.42-1.98Z"/>
      <path d="M525.4,962.27h3.29c-.68,2.92-1.84,5.19-3.48,6.79s-3.63,2.41-5.99,2.41c-2.79,0-4.65-.93-5.59-2.79-.92-1.86-.91-5.04.04-9.54.96-4.52,2.32-7.83,4.07-9.95,1.78-2.13,4.11-3.19,7.01-3.19,2.24,0,3.85.75,4.81,2.24.97,1.49,1.19,3.47.66,5.94h-3.29c.74-3.51-.2-5.26-2.81-5.26-1.67,0-3.04.77-4.11,2.32-1.06,1.53-2,4.21-2.81,8.03-.74,3.49-.88,5.91-.43,7.26.47,1.35,1.48,2.02,3.05,2.02,1.29,0,2.36-.41,3.22-1.23.87-.82,1.65-2.51,2.34-5.05Z"/>
      <path d="M538.73,938.12h3.46l-2.39,11.29c2.03-2.27,4.28-3.41,6.76-3.41,1.99,0,3.35.53,4.11,1.58.74,1.05.88,2.63.43,4.73l-3.93,18.53h-3.44l3.72-17.55c.61-2.91-.26-4.37-2.62-4.37-1.62,0-2.96.51-4.01,1.53s-1.73,2.25-2.04,3.68l-3.54,16.7h-3.44l6.94-32.71Z"/>
      <path d="M556.46,953.16l.17-.85c.89-4.2,3.74-6.3,8.54-6.3,2.17,0,3.71.53,4.62,1.58.91,1.05,1.18,2.44.81,4.17l-3.18,15.02c-.21,1.04.14,1.55,1.07,1.55.22,0,.46-.01.7-.04l-.53,2.49c-.45.17-1,.25-1.63.25-1.24,0-2.06-.27-2.46-.81-.38-.55-.45-1.5-.19-2.85-.78,1.22-1.77,2.21-2.98,2.98-1.19.75-2.36,1.13-3.51,1.13-4.17,0-5.77-2.32-4.79-6.96.64-3,2.36-5.03,5.15-6.09l6.79-2.53c.6-.23,1.04-.5,1.34-.81.3-.31.55-.94.75-1.9.38-1.84.3-3.02-.25-3.51-.57-.5-1.48-.75-2.74-.75s-2.31.27-2.98.81c-.67.54-1.13,1.4-1.38,2.58l-.17.85h-3.13ZM565.9,957.72c-1.37.74-3.36,1.58-5.99,2.53-1.71.65-2.8,2.11-3.29,4.37-.55,2.63.32,3.94,2.63,3.94,1.25,0,2.39-.47,3.42-1.41,1.02-.95,1.68-2.09,1.96-3.43l1.27-6.01Z"/>
      <path d="M572.96,970.84l5.13-24.19h3.33l-.59,2.77c2.03-2.27,4.33-3.41,6.89-3.41,1.89,0,3.23.52,4.03,1.55s.97,2.62.51,4.75l-3.93,18.53h-3.44l3.72-17.55c.61-2.91-.26-4.37-2.62-4.37-1.44,0-2.72.49-3.86,1.47-1.14.98-1.87,2.23-2.2,3.75l-3.54,16.7h-3.44ZM592.51,938.17h2.15c-.5,1.45-1.24,2.61-2.24,3.47-.98.87-2.06,1.3-3.26,1.3-.71,0-1.72-.27-3.02-.81-1.29-.55-2.27-.83-2.94-.83-.57,0-1.1.21-1.6.62-.48.41-.77.84-.87,1.3h-2.15c.44-1.41,1.14-2.54,2.11-3.41.98-.87,2.1-1.3,3.36-1.3.87,0,1.92.28,3.17.83,1.25.54,2.2.81,2.85.81.47,0,.96-.23,1.49-.68.52-.46.84-.89.94-1.3Z"/>
      <path d="M597.63,953.16l.17-.85c.89-4.2,3.74-6.3,8.54-6.3,2.17,0,3.71.53,4.62,1.58s1.18,2.44.81,4.17l-3.18,15.02c-.21,1.04.15,1.55,1.08,1.55.22,0,.46-.01.7-.04l-.53,2.49c-.45.17-1,.25-1.63.25-1.25,0-2.06-.27-2.46-.81-.38-.55-.45-1.5-.19-2.85-.78,1.22-1.77,2.21-2.98,2.98-1.19.75-2.36,1.13-3.51,1.13-4.17,0-5.77-2.32-4.79-6.96.64-3,2.36-5.03,5.15-6.09l6.79-2.53c.6-.23,1.04-.5,1.34-.81.3-.31.55-.94.75-1.9.38-1.84.3-3.02-.26-3.51-.57-.5-1.48-.75-2.74-.75s-2.31.27-2.98.81c-.67.54-1.13,1.4-1.38,2.58l-.17.85h-3.13ZM607.07,957.72c-1.37.74-3.36,1.58-5.99,2.53-1.71.65-2.8,2.11-3.29,4.37-.55,2.63.32,3.94,2.63,3.94,1.25,0,2.39-.47,3.42-1.41,1.02-.95,1.68-2.09,1.96-3.43l1.27-6.01Z"/>
      <path d="M614.5,970.84l5.13-24.19h3.35l-.8,3.79c1.88-2.95,4.3-4.43,7.29-4.43.31,0,.62.01.92.04l-.73,3.43c-.28-.09-.76-.13-1.43-.13-1.8,0-3.34.6-4.6,1.79-1.25,1.19-2.08,2.78-2.49,4.75l-3.17,14.95h-3.46Z"/>
      <path d="M636.07,978.69l.64-3.02c.72.34,1.58.51,2.56.51,1.7,0,3.03-.8,3.98-2.41l1.1-2.02h0l-2.51-25.11h3.55l1.13,21.17h.02l10.15-21.17h3.55l-13.32,25.86c-1.35,2.56-2.64,4.29-3.86,5.22-1.22.92-2.72,1.38-4.5,1.38-.92,0-1.75-.14-2.49-.41Z"/>
      <path d="M672.68,953.16l.17-.85c.89-4.2,3.74-6.3,8.54-6.3,2.17,0,3.71.53,4.62,1.58.91,1.05,1.18,2.44.81,4.17l-3.18,15.02c-.21,1.04.14,1.55,1.07,1.55.22,0,.46-.01.7-.04l-.53,2.49c-.45.17-1,.25-1.63.25-1.24,0-2.06-.27-2.46-.81-.38-.55-.45-1.5-.19-2.85-.78,1.22-1.77,2.21-2.98,2.98-1.19.75-2.36,1.13-3.51,1.13-4.17,0-5.77-2.32-4.79-6.96.64-3,2.36-5.03,5.15-6.09l6.79-2.53c.6-.23,1.04-.5,1.34-.81.3-.31.55-.94.75-1.9.38-1.84.3-3.02-.25-3.51-.57-.5-1.48-.75-2.74-.75s-2.31.27-2.98.81c-.67.54-1.13,1.4-1.38,2.58l-.17.85h-3.13ZM682.12,957.72c-1.37.74-3.36,1.58-5.99,2.53-1.71.65-2.8,2.11-3.29,4.37-.55,2.63.32,3.94,2.63,3.94,1.25,0,2.39-.47,3.42-1.41,1.02-.95,1.68-2.09,1.96-3.43l1.27-6.01Z"/>
      <path d="M689.14,970.84l6.93-32.71h3.46l-6.94,32.71h-3.46Z"/>
      <path d="M698.62,973.26h3.29c-.1,1.92,1.02,2.88,3.34,2.88,1.55,0,2.86-.55,3.92-1.64,1.05-1.09,1.82-2.78,2.3-5.05l.34-1.64c-1.85,2.44-3.86,3.66-6.03,3.66-5.2,0-6.89-4.28-5.09-12.84.82-3.85,2.12-6.92,3.88-9.2,1.77-2.29,3.91-3.43,6.41-3.43s4.19,1.17,4.82,3.51l.61-2.88h3.35l-4.56,21.53c-1.55,7.25-5.15,10.88-10.8,10.88-2.13,0-3.68-.51-4.65-1.53-.94-1.04-1.31-2.46-1.13-4.26ZM704.27,958.65c-1.39,6.6-.6,9.9,2.38,9.9,3.42,0,5.78-3.09,7.09-9.29.78-3.69.95-6.34.51-7.94-.43-1.6-1.48-2.41-3.15-2.41-3.18,0-5.46,3.24-6.83,9.73Z"/>
      <path d="M723.54,953.16l.17-.85c.89-4.2,3.74-6.3,8.54-6.3,2.17,0,3.71.53,4.62,1.58s1.18,2.44.81,4.17l-3.18,15.02c-.21,1.04.15,1.55,1.08,1.55.22,0,.46-.01.7-.04l-.53,2.49c-.45.17-1,.25-1.63.25-1.25,0-2.06-.27-2.46-.81-.38-.55-.45-1.5-.19-2.85-.78,1.22-1.77,2.21-2.98,2.98-1.19.75-2.36,1.13-3.51,1.13-4.17,0-5.77-2.32-4.79-6.96.64-3,2.36-5.03,5.15-6.09l6.79-2.53c.6-.23,1.04-.5,1.34-.81.3-.31.55-.94.75-1.9.38-1.84.3-3.02-.26-3.51-.57-.5-1.48-.75-2.74-.75s-2.31.27-2.98.81c-.67.54-1.13,1.4-1.38,2.58l-.17.85h-3.13ZM732.98,957.72c-1.37.74-3.36,1.58-5.99,2.53-1.71.65-2.8,2.11-3.29,4.37-.55,2.63.32,3.94,2.63,3.94,1.25,0,2.39-.47,3.42-1.41,1.02-.95,1.68-2.09,1.96-3.43l1.27-6.01Z"/>
      <path d="M740.42,970.84l5.13-24.19h3.35l-.8,3.79c1.88-2.95,4.3-4.43,7.29-4.43.31,0,.62.01.92.04l-.73,3.43c-.28-.09-.76-.13-1.43-.13-1.8,0-3.34.6-4.6,1.79-1.25,1.19-2.08,2.78-2.49,4.75l-3.17,14.95h-3.46Z"/>
      <path d="M754.94,970.84l5.13-24.19h3.35l-.8,3.79c1.87-2.95,4.3-4.43,7.29-4.43.31,0,.62.01.92.04l-.73,3.43c-.28-.09-.76-.13-1.43-.13-1.8,0-3.34.6-4.6,1.79-1.25,1.19-2.08,2.78-2.49,4.75l-3.17,14.95h-3.46Z"/>
      <path d="M770.87,957.85c.82-3.85,2.17-6.78,4.05-8.8,1.89-2.03,4.27-3.05,7.14-3.05s4.66,1.03,5.67,3.09c1.04,2.04,1.16,4.93.36,8.65-.97,4.59-2.35,8.02-4.16,10.31-1.79,2.29-4.19,3.43-7.2,3.43s-5.11-1.05-6.03-3.15c-.91-2.12-.85-5.61.17-10.48ZM774.2,958.97c-.71,3.32-.82,5.75-.34,7.28.48,1.53,1.61,2.3,3.37,2.3s3.32-.8,4.41-2.41c1.09-1.6,1.97-4,2.64-7.18.77-3.58.92-6.15.47-7.71-.46-1.56-1.58-2.34-3.39-2.34s-3.15.77-4.3,2.3c-1.14,1.53-2.09,4.12-2.86,7.75Z"/>
      <path d="M791.01,970.84l6.94-32.71h3.46l-2.39,11.29c.64-1.01,1.5-1.82,2.59-2.45,1.08-.64,2.2-.96,3.38-.96,2.57,0,4.27,1.04,5.1,3.11.85,2.06.92,4.77.19,8.14-.98,4.67-2.31,8.21-4,10.63-1.65,2.4-3.85,3.6-6.62,3.6-2.6,0-4.22-1.25-4.85-3.75l-.66,3.11h-3.13ZM796.93,959.27l-.32,1.49c-.65,3.08-.67,5.15-.04,6.22.65,1.05,1.7,1.58,3.13,1.58,1.83,0,3.25-.87,4.25-2.62,1.01-1.76,1.87-4.32,2.57-7.67,1.32-6.23.41-9.35-2.74-9.35-1.67,0-3.01.68-4.02,2.04-1.01,1.36-1.84,3.63-2.51,6.82l-.32,1.49Z"/>
      <path d="M814.49,957.85c.82-3.85,2.17-6.78,4.05-8.8,1.89-2.03,4.27-3.05,7.14-3.05s4.66,1.03,5.67,3.09c1.04,2.04,1.16,4.93.36,8.65-.97,4.59-2.35,8.02-4.16,10.31-1.79,2.29-4.19,3.43-7.2,3.43s-5.11-1.05-6.03-3.15c-.91-2.12-.85-5.61.17-10.48ZM817.82,958.97c-.71,3.32-.82,5.75-.34,7.28.48,1.53,1.61,2.3,3.37,2.3s3.32-.8,4.41-2.41c1.09-1.6,1.97-4,2.64-7.18.77-3.58.92-6.15.47-7.71-.46-1.56-1.58-2.34-3.39-2.34s-3.15.77-4.3,2.3c-1.14,1.53-2.09,4.12-2.86,7.75Z"/>
    </g>
    <image width="842" height="858" href="iconos.png"/>
  </g>
</svg>