<?xml version="1.0" encoding="UTF-8"?>
<svg id="Capa_2" xmlns="http://www.w3.org/2000/svg" xmlns:xlink="http://www.w3.org/1999/xlink" viewBox="0 0 2113 1188.59">
  <defs>
    <style>
      .cls-1 {
        fill: none;
        stroke: #000;
        stroke-linecap: round;
        stroke-linejoin: round;
        stroke-width: 2.13px;
      }

      .cls-2 {
        font-family: Helvetica-Condensed-BoldObl, 'Helvetica Condensed';
        font-style: oblique;
      }

      .cls-2, .cls-3, .cls-4 {
        font-weight: 700;
      }

      .cls-2, .cls-5 {
        font-size: 21.89px;
      }

      .cls-2, .cls-6 {
        fill: #90414b;
      }

      .cls-3 {
        font-size: 24.63px;
      }

      .cls-3, .cls-4 {
        font-family: Helvetica-Condensed-Bold, 'Helvetica Condensed';
      }

      .cls-4 {
        font-size: 24.63px;
      }

      .cls-5, .cls-7 {
        font-family: Helvetica-Condensed, 'Helvetica Condensed';
      }

      .cls-7 {
        font-size: 21.89px;
      }
    </style>
  </defs>
  <g id="ubicacion">
    <image width="2113" height="1170" href="ilustracion.png"/>
  </g>
  <g id="INFO">
    <g>
      <g>
        <path d="M1164.9,274.22h11.53v2.71h-4.04v15.77h-3.45v-15.77h-4.04v-2.71Z"/>
        <path d="M1181.33,286.42v2c0,.75.13,1.31.38,1.66.26.35.69.53,1.26.53,1,0,1.5-.63,1.5-1.9v-.65h3.2c0,3.34-1.48,5-4.44,5-1.77,0-3.07-.44-3.88-1.31-.82-.87-1.23-2.32-1.23-4.33v-3.76c0-3.45,1.57-5.17,4.7-5.17,1.6,0,2.8.36,3.62,1.07.82.71,1.23,2.29,1.23,4.74v2.13h-6.35ZM1181.33,283.96h3.15v-1.31c0-.64-.13-1.09-.38-1.33-.25-.26-.67-.38-1.26-.38s-1,.17-1.2.5c-.2.34-.3.9-.3,1.68v.84Z"/>
        <path d="M1195.93,287.28h3.2v1.29c0,2.99-1.46,4.49-4.39,4.49s-4.39-1.69-4.39-5.06v-4.61c0-3.27,1.44-4.91,4.32-4.91,1.48,0,2.6.37,3.34,1.11.75.73,1.12,1.71,1.12,2.93v1.15h-3.2v-1.5c0-.83-.38-1.24-1.16-1.24-.82,0-1.23.75-1.23,2.24v5.24c0,1.46.42,2.19,1.28,2.19.74,0,1.11-.73,1.11-2.19v-1.13Z"/>
        <path d="M1201.58,274.22h3.2v6.18c.62-1.28,1.6-1.92,2.96-1.92.95,0,1.72.3,2.31.89.59.59.89,1.46.89,2.61v10.72h-3.2v-9.51c0-.81-.1-1.39-.3-1.73-.19-.34-.55-.52-1.07-.52-1.06,0-1.59.83-1.59,2.48v9.28h-3.2v-18.47Z"/>
        <path d="M1213.85,278.84h3.2v9.84c0,1.28.43,1.92,1.29,1.92.99,0,1.48-.83,1.48-2.48v-9.28h3.2v13.85h-3.05v-2.14c-.52,1.67-1.53,2.5-3.03,2.5-1.12,0-1.91-.29-2.38-.87-.46-.59-.7-1.5-.7-2.74v-10.61Z"/>
        <path d="M1226.31,278.84h3.2v1.56c.62-1.28,1.7-1.92,3.21-1.92.85,0,1.52.19,2.02.58.5.38.79.83.87,1.35.16-.46.51-.9,1.03-1.31.54-.41,1.26-.61,2.17-.61,1.04,0,1.87.27,2.48.81.62.54.93,1.27.93,2.19v11.22h-3.2v-9.33c0-.86-.1-1.48-.3-1.85-.2-.38-.57-.58-1.11-.58-.64,0-1.09.21-1.36.64-.26.42-.38,1.08-.38,1.98v9.14h-3.2v-9.51c0-.83-.11-1.41-.34-1.74-.22-.34-.64-.5-1.24-.5-.53,0-.93.16-1.19.48-.26.32-.38.99-.38,2v9.28h-3.2v-13.85Z"/>
        <path d="M1245.47,292.69v-18.47h3.2v5.99c.52-1.15,1.45-1.73,2.79-1.73,1.06,0,1.88.34,2.48,1.02.59.68.89,1.94.89,3.76v4.98c0,3.21-1.08,4.81-3.25,4.81-1.38,0-2.4-.64-3.05-1.92v1.56h-3.05ZM1248.67,283.65v4.35c0,1.73.52,2.6,1.55,2.6.94,0,1.41-.83,1.41-2.49v-4.79c0-.95-.12-1.59-.35-1.91-.23-.32-.59-.48-1.08-.48-1.02,0-1.53.91-1.53,2.72Z"/>
        <path d="M1257.69,292.69v-13.85h3.1v2.45c.34-.87.79-1.55,1.32-2.06.54-.5,1.22-.76,2.04-.76v3.76c-.24-.02-.47-.04-.69-.04-1.72,0-2.59.78-2.59,2.33v8.15h-3.2Z"/>
        <path d="M1268.88,286.42v2c0,.75.13,1.31.38,1.66.26.35.69.53,1.26.53,1,0,1.5-.63,1.5-1.9v-.65h3.2c0,3.34-1.48,5-4.44,5-1.77,0-3.07-.44-3.88-1.31-.82-.87-1.23-2.32-1.23-4.33v-3.76c0-3.45,1.57-5.17,4.7-5.17,1.6,0,2.8.36,3.62,1.07.82.71,1.23,2.29,1.23,4.74v2.13h-6.35ZM1268.88,283.96h3.15v-1.31c0-.64-.13-1.09-.38-1.33-.25-.26-.67-.38-1.26-.38s-1,.17-1.2.5c-.2.34-.3.9-.3,1.68v.84Z"/>
        <path d="M1284.78,297.35v-2.49c.19.02.41.04.64.04.49,0,.83-.05,1.01-.16.18-.11.28-.3.28-.55,0-.35-.07-.79-.21-1.31l-3.45-14.03h3.36l1.91,9.96,1.88-9.96h3.25l-3.66,15.49c-.27,1.12-.66,1.92-1.17,2.41-.5.48-1.29.72-2.36.72-.33,0-.82-.04-1.48-.11Z"/>
        <path d="M1304.79,280.4c.55-1.28,1.47-1.92,2.74-1.92,1.09,0,1.93.35,2.53,1.06.59.7.89,1.94.89,3.73v5.09c0,3.13-1.1,4.7-3.29,4.7-.71,0-1.29-.13-1.74-.38-.45-.26-.82-.71-1.12-1.35v5.99h-3.2v-18.47h3.2v1.56ZM1304.79,283.69v4.44c0,1.65.52,2.48,1.55,2.48.94,0,1.41-.83,1.41-2.49v-5.08c0-.75-.12-1.28-.37-1.61-.24-.33-.57-.49-1-.49-1.06,0-1.59.92-1.59,2.75Z"/>
        <path d="M1313.72,278.84h3.2v9.84c0,1.28.43,1.92,1.29,1.92.99,0,1.48-.83,1.48-2.48v-9.28h3.2v13.85h-3.05v-2.14c-.52,1.67-1.53,2.5-3.03,2.5-1.12,0-1.91-.29-2.38-.87-.46-.59-.7-1.5-.7-2.74v-10.61Z"/>
        <path d="M1329.08,286.42v2c0,.75.13,1.31.38,1.66.26.35.69.53,1.26.53,1,0,1.5-.63,1.5-1.9v-.65h3.2c0,3.34-1.48,5-4.44,5-1.77,0-3.07-.44-3.88-1.31-.82-.87-1.23-2.32-1.23-4.33v-3.76c0-3.45,1.57-5.17,4.7-5.17,1.6,0,2.8.36,3.62,1.07.82.71,1.23,2.29,1.23,4.74v2.13h-6.35ZM1329.08,283.96h3.15v-1.31c0-.64-.13-1.09-.38-1.33-.25-.26-.67-.38-1.26-.38s-1,.17-1.2.5c-.2.34-.3.9-.3,1.68v.84Z"/>
        <path d="M1338.4,292.69v-13.85h3.1v2.45c.34-.87.79-1.55,1.32-2.06.54-.5,1.22-.76,2.04-.76v3.76c-.24-.02-.47-.04-.69-.04-1.72,0-2.59.78-2.59,2.33v8.15h-3.2Z"/>
        <path d="M1345.44,281.18v-2.35h1.3v-3.85h3.2v3.85h1.35v2.35h-1.35v8.31c0,.18.04.37.12.57s.34.29.77.29c.14,0,.29-.01.46-.04v2.49c-.53.07-1.09.11-1.67.11-.94,0-1.65-.19-2.14-.56-.49-.38-.73-1.01-.73-1.91v-9.25h-1.3Z"/>
        <path d="M1353.08,282.9c0-1.64.4-2.79,1.19-3.44.8-.66,2.03-.99,3.68-.99s2.79.31,3.5.91c.72.61,1.08,1.62,1.08,3.03v8.38c0,.69.08,1.32.25,1.89h-3.05c-.13-.3-.19-.67-.19-1.09,0-.12.02-.28.05-.47-.46.7-.94,1.19-1.43,1.49-.48.29-.98.43-1.5.43-2.45,0-3.67-1.38-3.67-4.12,0-1.25.31-2.2.93-2.84.62-.64,1.68-1.27,3.16-1.88.82-.31,1.41-.6,1.77-.85.36-.26.54-.65.54-1.14s-.1-.81-.3-1c-.19-.19-.57-.29-1.14-.29-.71,0-1.19.14-1.44.41-.24.27-.36.79-.36,1.56h-3.05ZM1359.33,285.41l-1.89,1.24c-.52.33-.86.63-1.02.91-.16.27-.24.69-.24,1.26,0,1.19.51,1.78,1.53,1.78,1.08,0,1.62-.72,1.62-2.15v-3.04Z"/>
        <path d="M1365.02,288.05h3.2c-.03.3-.05.59-.05.85,0,1.13.45,1.7,1.36,1.7s1.41-.41,1.41-1.23c0-.49-.16-.87-.49-1.13-.32-.26-.75-.58-1.27-.94l-1.79-1.27c-1.57-1.1-2.36-2.51-2.36-4.23,0-2.21,1.55-3.32,4.65-3.32,1.55,0,2.69.38,3.42,1.13.73.75,1.09,1.92,1.09,3.49h-3.2c0-.98-.13-1.58-.4-1.82-.26-.23-.61-.35-1.06-.35-.87,0-1.31.38-1.31,1.14,0,.35.11.65.34.9.22.24.58.53,1.08.88l2.32,1.59c1.48,1.02,2.22,2.23,2.22,3.62,0,2.66-1.51,3.99-4.53,3.99s-4.68-1.46-4.68-4.38c0-.27.02-.48.05-.63Z"/>
        <path d="M1166.19,303.64h2.98l5.23,14.88v-14.88h1.82v16.42h-2.98l-5.23-14.94v14.94h-1.82v-16.42Z"/>
        <path d="M1179,313.54c0-1.93.36-3.4,1.09-4.42.73-1.02,1.82-1.53,3.26-1.53s2.45.52,3.17,1.55c.73,1.03,1.1,2.47,1.1,4.34,0,2.3-.33,4.03-.99,5.17-.66,1.15-1.74,1.72-3.25,1.72s-2.67-.53-3.36-1.58c-.68-1.06-1.03-2.82-1.03-5.26ZM1180.79,314.11c0,1.67.2,2.89.6,3.66.41.77,1.05,1.15,1.93,1.15s1.58-.4,1.96-1.21c.38-.81.57-2.01.57-3.6,0-1.8-.2-3.09-.59-3.87-.39-.78-1.04-1.18-1.95-1.18s-1.5.38-1.91,1.15c-.41.77-.61,2.07-.61,3.89Z"/>
        <path d="M1196.93,316.45c0,.79.13,1.4.41,1.83.28.43.83.64,1.66.64,1.55,0,2.33-.68,2.33-2.03,0-.54-.17-.96-.52-1.26-.34-.31-.96-.62-1.84-.93-1.53-.53-2.52-1.07-2.96-1.6-.44-.53-.66-1.2-.66-2.01,0-1.14.34-2.01,1.03-2.6.68-.59,1.55-.89,2.59-.89,2.49,0,3.73,1.2,3.73,3.59h-1.65c0-.7-.13-1.23-.4-1.58-.26-.36-.78-.54-1.55-.54-1.31,0-1.97.62-1.97,1.86,0,.46.15.86.45,1.18.31.32,1.04.71,2.21,1.15,1.37.53,2.26,1.03,2.68,1.52.43.48.64,1.11.64,1.88,0,1.21-.39,2.14-1.17,2.78-.77.63-1.74.95-2.9.95s-2.08-.3-2.76-.91c-.67-.61-1-1.42-1-2.42v-.61h1.65Z"/>
        <path d="M1206.75,314.11v.91c0,1.52.2,2.55.61,3.09.41.54.96.81,1.62.81s1.15-.21,1.51-.63c.36-.43.54-.99.57-1.7,0-.21,0-.41.02-.59h1.57v.42c0,1.12-.32,2.06-.96,2.82-.63.76-1.55,1.14-2.76,1.14-2.64,0-3.97-2.13-3.97-6.39,0-1.97.34-3.53,1.02-4.67.68-1.15,1.65-1.72,2.93-1.72,1.38,0,2.35.45,2.94,1.34.59.89.89,2.62.89,5.17h-5.99ZM1210.95,312.68c0-1.46-.18-2.43-.56-2.91-.36-.48-.83-.72-1.41-.72-.81,0-1.37.28-1.7.84-.33.56-.51,1.49-.54,2.78h4.2Z"/>
        <path d="M1220.89,307.92h1.73v9.45c0,.5.11.88.34,1.15.23.26.65.4,1.25.4.66,0,1.23-.25,1.73-.75s.76-1.36.76-2.57v-7.69h1.73v12.14h-1.73v-1.73c-.57,1.37-1.59,2.05-3.05,2.05-1.85,0-2.77-1.05-2.77-3.16v-9.3Z"/>
        <path d="M1230.38,309.38v-1.46h1.68v-3.25h1.73v3.25h2.05v1.46h-2.05v8.27c0,.37.05.62.14.75.1.13.35.19.75.19h1.11v1.46h-1.92c-.71,0-1.18-.14-1.43-.43-.25-.29-.37-.8-.37-1.53v-8.72h-1.68Z"/>
        <path d="M1237.82,303.66h1.73v2.2h-1.73v-2.2ZM1237.82,307.92h1.73v12.14h-1.73v-12.14Z"/>
        <path d="M1242.68,320.06v-16.42h1.73v16.42h-1.73Z"/>
        <path d="M1247.55,303.66h1.73v2.2h-1.73v-2.2ZM1247.55,307.92h1.73v12.14h-1.73v-12.14Z"/>
        <path d="M1251.35,320.06v-1.38l5.74-9.34h-5.5v-1.42h7.28v1.42l-5.74,9.3h5.79v1.42h-7.58Z"/>
        <path d="M1260.47,313.54c0-1.93.36-3.4,1.09-4.42.73-1.02,1.82-1.53,3.26-1.53s2.45.52,3.17,1.55c.73,1.03,1.1,2.47,1.1,4.34,0,2.3-.33,4.03-.99,5.17-.66,1.15-1.74,1.72-3.25,1.72s-2.67-.53-3.36-1.58c-.68-1.06-1.03-2.82-1.03-5.26ZM1262.26,314.11c0,1.67.2,2.89.6,3.66.41.77,1.05,1.15,1.93,1.15s1.58-.4,1.96-1.21c.38-.81.57-2.01.57-3.6,0-1.8-.2-3.09-.59-3.87-.39-.78-1.04-1.18-1.95-1.18s-1.5.38-1.91,1.15c-.41.77-.61,2.07-.61,3.89ZM1263.62,306.4l1.9-3.08h2.37l-2.82,3.08h-1.45Z"/>
        <path d="M1282.96,315.76h1.65c-.04,1.47-.38,2.6-1.03,3.41s-1.56,1.21-2.75,1.21c-1.4,0-2.43-.47-3.09-1.4s-.99-2.53-.99-4.79.33-3.93.98-4.99c.66-1.07,1.72-1.6,3.17-1.6,1.13,0,2.01.37,2.65,1.12.64.75.96,1.74.96,2.98h-1.65c0-1.76-.66-2.64-1.97-2.64-.84,0-1.45.39-1.82,1.17-.37.77-.56,2.11-.56,4.03,0,1.75.19,2.97.56,3.65.38.68.96,1.02,1.74,1.02.65,0,1.14-.21,1.49-.62.35-.41.56-1.26.64-2.53Z"/>
        <path d="M1287.07,320.06v-16.42h1.73v16.42h-1.73Z"/>
        <path d="M1291.51,311.19v-.43c0-2.11,1.2-3.16,3.61-3.16,1.09,0,1.92.26,2.48.79.57.53.86,1.23.86,2.1v7.54c0,.52.23.78.71.78.11,0,.23,0,.35-.02v1.25c-.21.09-.47.13-.79.13-.63,0-1.07-.14-1.33-.41-.25-.28-.38-.76-.41-1.43-.26.61-.65,1.11-1.18,1.5-.52.38-1.07.57-1.65.57-2.1,0-3.14-1.17-3.14-3.5,0-1.5.64-2.52,1.93-3.06l3.14-1.27c.28-.11.47-.25.59-.41.11-.16.17-.47.17-.95,0-.93-.17-1.51-.5-1.76s-.82-.37-1.45-.37-1.13.14-1.41.41c-.28.27-.42.7-.42,1.29v.43h-1.57ZM1296.73,313.48c-.61.37-1.51.79-2.73,1.27-.79.33-1.19,1.06-1.19,2.19,0,1.32.58,1.98,1.73,1.98.63,0,1.15-.23,1.56-.71.41-.48.62-1.05.62-1.72v-3.01Z"/>
        <path d="M1304.98,318.68l2.73-10.77h1.79l-3.59,12.14h-1.89l-3.59-12.14h1.79l2.78,10.77Z"/>
        <path d="M1310.9,313.54c0-1.93.36-3.4,1.09-4.42.73-1.02,1.82-1.53,3.26-1.53s2.45.52,3.17,1.55c.73,1.03,1.1,2.47,1.1,4.34,0,2.3-.33,4.03-.99,5.17-.66,1.15-1.74,1.72-3.25,1.72s-2.67-.53-3.36-1.58c-.68-1.06-1.03-2.82-1.03-5.26ZM1312.69,314.11c0,1.67.2,2.89.6,3.66.41.77,1.05,1.15,1.93,1.15s1.58-.4,1.96-1.21c.38-.81.57-2.01.57-3.6,0-1.8-.2-3.09-.59-3.87-.39-.78-1.04-1.18-1.95-1.18s-1.5.38-1.91,1.15c-.41.77-.61,2.07-.61,3.89Z"/>
        <path d="M1323.36,316.45c0,.79.13,1.4.41,1.83.28.43.83.64,1.66.64,1.55,0,2.33-.68,2.33-2.03,0-.54-.17-.96-.52-1.26-.34-.31-.96-.62-1.84-.93-1.53-.53-2.52-1.07-2.96-1.6-.44-.53-.66-1.2-.66-2.01,0-1.14.34-2.01,1.03-2.6.68-.59,1.55-.89,2.59-.89,2.49,0,3.73,1.2,3.73,3.59h-1.65c0-.7-.13-1.23-.4-1.58-.26-.36-.78-.54-1.55-.54-1.31,0-1.97.62-1.97,1.86,0,.46.15.86.45,1.18.31.32,1.04.71,2.21,1.15,1.37.53,2.26,1.03,2.68,1.52.43.48.64,1.11.64,1.88,0,1.21-.39,2.14-1.17,2.78-.77.63-1.74.95-2.9.95s-2.08-.3-2.76-.91c-.67-.61-1-1.42-1-2.42v-.61h1.65Z"/>
        <path d="M1332.2,322.32c.71-.16,1.06-.92,1.06-2.26h-1.06v-2.22h1.99v2.2c0,1.77-.66,2.86-1.99,3.27v-.99Z"/>
        <path d="M1344.02,316.45c0,.79.13,1.4.41,1.83.28.43.83.64,1.66.64,1.55,0,2.33-.68,2.33-2.03,0-.54-.17-.96-.52-1.26-.34-.31-.96-.62-1.84-.93-1.53-.53-2.52-1.07-2.96-1.6-.44-.53-.66-1.2-.66-2.01,0-1.14.34-2.01,1.03-2.6.68-.59,1.55-.89,2.59-.89,2.49,0,3.73,1.2,3.73,3.59h-1.65c0-.7-.13-1.23-.4-1.58-.26-.36-.78-.54-1.55-.54-1.31,0-1.97.62-1.97,1.86,0,.46.15.86.45,1.18.31.32,1.04.71,2.21,1.15,1.37.53,2.26,1.03,2.68,1.52.43.48.64,1.11.64,1.88,0,1.21-.39,2.14-1.17,2.78-.77.63-1.74.95-2.9.95s-2.08-.3-2.76-.91c-.67-.61-1-1.42-1-2.42v-.61h1.65Z"/>
        <path d="M1352.69,303.66h1.73v2.2h-1.73v-2.2ZM1352.69,307.92h1.73v12.14h-1.73v-12.14Z"/>
        <path d="M1357.58,320.06v-12.14h1.68v1.39c.78-1.14,1.81-1.71,3.09-1.71.95,0,1.67.26,2.18.78.51.52.77,1.31.77,2.38v9.3h-1.73v-8.81c0-1.46-.59-2.19-1.77-2.19-.72,0-1.31.25-1.79.74-.46.49-.7,1.12-.7,1.88v8.38h-1.73Z"/>
        <path d="M1368.04,313.54c0-1.93.36-3.4,1.09-4.42.73-1.02,1.82-1.53,3.26-1.53s2.45.52,3.17,1.55c.73,1.03,1.1,2.47,1.1,4.34,0,2.3-.33,4.03-.99,5.17-.66,1.15-1.74,1.72-3.25,1.72s-2.67-.53-3.36-1.58c-.68-1.06-1.03-2.82-1.03-5.26ZM1369.83,314.11c0,1.67.2,2.89.6,3.66.41.77,1.05,1.15,1.93,1.15s1.58-.4,1.96-1.21c.38-.81.57-2.01.57-3.6,0-1.8-.2-3.09-.59-3.87-.39-.78-1.04-1.18-1.95-1.18s-1.5.38-1.91,1.15c-.41.77-.61,2.07-.61,3.89Z"/>
        <path d="M1384.5,311.19v-.43c0-2.11,1.2-3.16,3.61-3.16,1.09,0,1.92.26,2.48.79.57.53.86,1.23.86,2.1v7.54c0,.52.23.78.71.78.11,0,.23,0,.35-.02v1.25c-.21.09-.47.13-.79.13-.63,0-1.07-.14-1.33-.41-.25-.28-.38-.76-.41-1.43-.26.61-.65,1.11-1.18,1.5-.52.38-1.07.57-1.65.57-2.1,0-3.14-1.17-3.14-3.5,0-1.5.64-2.52,1.93-3.06l3.14-1.27c.28-.11.47-.25.59-.41.11-.16.17-.47.17-.95,0-.93-.17-1.51-.5-1.76s-.82-.37-1.45-.37-1.13.14-1.41.41c-.28.27-.42.7-.42,1.29v.43h-1.57ZM1389.72,313.48c-.61.37-1.51.79-2.73,1.27-.79.33-1.19,1.06-1.19,2.19,0,1.32.58,1.98,1.73,1.98.63,0,1.15-.23,1.56-.71.41-.48.62-1.05.62-1.72v-3.01Z"/>
        <path d="M1394.75,307.92h1.68v1.56c.76-1.25,1.74-1.88,2.92-1.88,1.25,0,2.21.63,2.88,1.88.85-1.25,1.94-1.88,3.26-1.88.81,0,1.51.25,2.1.74.58.49.88,1.3.88,2.43v9.3h-1.73v-8.81c0-.79-.14-1.35-.43-1.69-.28-.33-.75-.5-1.4-.5-.62,0-1.18.24-1.68.72-.5.47-.75,1.1-.75,1.9v8.38h-1.73v-8.81c0-1.46-.61-2.19-1.83-2.19-.67,0-1.24.22-1.72.67-.47.44-.71,1.19-.71,2.25v8.08h-1.73v-12.14Z"/>
        <path d="M1411.25,311.19v-.43c0-2.11,1.2-3.16,3.61-3.16,1.09,0,1.92.26,2.48.79.57.53.86,1.23.86,2.1v7.54c0,.52.23.78.71.78.11,0,.23,0,.35-.02v1.25c-.21.09-.47.13-.79.13-.63,0-1.07-.14-1.33-.41-.25-.28-.38-.76-.41-1.43-.26.61-.65,1.11-1.18,1.5-.52.38-1.07.57-1.65.57-2.1,0-3.14-1.17-3.14-3.5,0-1.5.64-2.52,1.93-3.06l3.14-1.27c.28-.11.47-.25.59-.41.11-.16.17-.47.17-.95,0-.93-.17-1.51-.5-1.76s-.82-.37-1.45-.37-1.13.14-1.41.41c-.28.27-.42.7-.42,1.29v.43h-1.57ZM1416.47,313.48c-.61.37-1.51.79-2.73,1.27-.79.33-1.19,1.06-1.19,2.19,0,1.32.58,1.98,1.73,1.98.63,0,1.15-.23,1.56-.71.41-.48.62-1.05.62-1.72v-3.01Z"/>
        <path d="M1420.84,312.24h5.3v1.82h-5.3v-1.82Z"/>
        <path d="M1166.3,347.43v-12.14h1.68v1.9c.63-1.48,1.69-2.22,3.19-2.22.16,0,.31,0,.46.02v1.72c-.15-.04-.39-.06-.73-.06-.91,0-1.61.3-2.12.9-.5.6-.75,1.39-.75,2.38v7.5h-1.73Z"/>
        <path d="M1173.59,347.43v-12.14h1.68v1.9c.63-1.48,1.69-2.22,3.19-2.22.16,0,.31,0,.46.02v1.72c-.15-.04-.39-.06-.73-.06-.91,0-1.61.3-2.12.9-.5.6-.75,1.39-.75,2.38v7.5h-1.73Z"/>
        <path d="M1180.25,338.55v-.43c0-2.11,1.2-3.16,3.61-3.16,1.09,0,1.92.26,2.48.79.57.53.86,1.23.86,2.1v7.54c0,.52.23.78.71.78.11,0,.23,0,.35-.02v1.25c-.21.09-.47.13-.79.13-.63,0-1.07-.14-1.33-.41-.25-.28-.38-.76-.41-1.43-.26.61-.65,1.11-1.18,1.5-.52.38-1.07.57-1.65.57-2.1,0-3.14-1.17-3.14-3.5,0-1.5.64-2.52,1.93-3.06l3.14-1.27c.28-.11.47-.25.59-.41.11-.16.17-.47.17-.95,0-.93-.17-1.51-.5-1.76s-.82-.37-1.45-.37-1.13.14-1.41.41c-.28.27-.42.7-.42,1.29v.43h-1.57ZM1185.47,340.84c-.61.37-1.51.79-2.73,1.27-.79.33-1.19,1.06-1.19,2.19,0,1.32.58,1.98,1.73,1.98.63,0,1.15-.23,1.56-.71.41-.48.62-1.05.62-1.72v-3.01Z"/>
        <path d="M1191.43,343.81c0,.79.13,1.4.41,1.83.28.43.83.64,1.66.64,1.55,0,2.33-.68,2.33-2.03,0-.54-.17-.96-.52-1.26-.34-.31-.96-.62-1.84-.93-1.53-.53-2.52-1.07-2.96-1.6-.44-.53-.66-1.2-.66-2.01,0-1.14.34-2.01,1.03-2.6.68-.59,1.55-.89,2.59-.89,2.49,0,3.73,1.2,3.73,3.59h-1.65c0-.7-.13-1.23-.4-1.58-.26-.36-.78-.54-1.55-.54-1.31,0-1.97.62-1.97,1.86,0,.46.15.86.45,1.18.31.32,1.04.71,2.21,1.15,1.37.53,2.26,1.03,2.68,1.52.43.48.64,1.11.64,1.88,0,1.21-.39,2.14-1.17,2.78-.77.63-1.74.95-2.9.95s-2.08-.3-2.76-.91c-.67-.61-1-1.42-1-2.42v-.61h1.65Z"/>
        <path d="M1211.53,336.67v-5.67h1.73v16.42h-1.68v-1.73c-.32.67-.69,1.18-1.12,1.53s-1.05.52-1.87.52c-1.13,0-2-.47-2.63-1.4-.62-.94-.93-2.8-.93-5.59,0-1.67.31-3.06.94-4.15.63-1.1,1.53-1.65,2.69-1.65s2.14.57,2.86,1.71ZM1206.82,341.4c0,1.89.18,3.17.54,3.86.37.68.97,1.03,1.8,1.03.74,0,1.32-.33,1.74-1,.42-.68.63-1.57.63-2.67v-1.56c0-1.62-.19-2.79-.57-3.52-.38-.73-.98-1.1-1.81-1.1-1.56,0-2.34,1.66-2.34,4.97Z"/>
        <path d="M1217.68,341.47v.91c0,1.52.2,2.55.61,3.09.41.54.96.81,1.62.81s1.15-.21,1.51-.63c.36-.43.54-.99.57-1.7,0-.21,0-.41.02-.59h1.57v.42c0,1.12-.32,2.06-.96,2.82-.63.76-1.55,1.14-2.76,1.14-2.64,0-3.97-2.13-3.97-6.39,0-1.97.34-3.53,1.02-4.67.68-1.15,1.65-1.72,2.93-1.72,1.38,0,2.35.45,2.94,1.34.59.89.89,2.62.89,5.17h-5.99ZM1221.88,340.05c0-1.46-.18-2.43-.56-2.91-.36-.48-.83-.72-1.41-.72-.81,0-1.37.28-1.7.84-.33.56-.51,1.49-.54,2.78h4.2Z"/>
        <path d="M1237.33,343.13h1.65c-.04,1.47-.38,2.6-1.03,3.41s-1.56,1.21-2.75,1.21c-1.4,0-2.43-.47-3.09-1.4s-.99-2.53-.99-4.79.33-3.93.98-4.99c.66-1.07,1.72-1.6,3.17-1.6,1.13,0,2.01.37,2.65,1.12.64.75.96,1.74.96,2.98h-1.65c0-1.76-.66-2.64-1.97-2.64-.84,0-1.45.39-1.82,1.17-.37.77-.56,2.11-.56,4.03,0,1.75.19,2.97.56,3.65.38.68.96,1.02,1.74,1.02.65,0,1.14-.21,1.49-.62.35-.41.56-1.26.64-2.53Z"/>
        <path d="M1241.54,335.28h1.73v9.45c0,.5.11.88.34,1.15.23.26.65.4,1.25.4.66,0,1.23-.25,1.73-.75s.76-1.36.76-2.57v-7.69h1.73v12.14h-1.73v-1.73c-.57,1.37-1.59,2.05-3.05,2.05-1.85,0-2.77-1.05-2.77-3.16v-9.3Z"/>
        <path d="M1253.53,341.47v.91c0,1.52.2,2.55.61,3.09.41.54.96.81,1.62.81s1.15-.21,1.51-.63c.36-.43.54-.99.57-1.7,0-.21,0-.41.02-.59h1.57v.42c0,1.12-.32,2.06-.96,2.82-.63.76-1.55,1.14-2.76,1.14-2.64,0-3.97-2.13-3.97-6.39,0-1.97.34-3.53,1.02-4.67.68-1.15,1.65-1.72,2.93-1.72,1.38,0,2.35.45,2.94,1.34.59.89.89,2.62.89,5.17h-5.99ZM1257.73,340.05c0-1.46-.18-2.43-.56-2.91-.36-.48-.83-.72-1.41-.72-.81,0-1.37.28-1.7.84-.33.56-.51,1.49-.54,2.78h4.2Z"/>
        <path d="M1262.31,347.43v-12.14h1.68v1.9c.63-1.48,1.69-2.22,3.19-2.22.16,0,.31,0,.46.02v1.72c-.15-.04-.39-.06-.73-.06-.91,0-1.61.3-2.12.9-.5.6-.75,1.39-.75,2.38v7.5h-1.73Z"/>
        <path d="M1268.92,340.91c0-1.93.36-3.4,1.09-4.42.73-1.02,1.82-1.53,3.26-1.53s2.45.52,3.17,1.55c.73,1.03,1.1,2.47,1.1,4.34,0,2.3-.33,4.03-.99,5.17-.66,1.15-1.74,1.72-3.25,1.72s-2.67-.53-3.36-1.58c-.68-1.06-1.03-2.82-1.03-5.26ZM1270.71,341.47c0,1.67.2,2.89.6,3.66.41.77,1.05,1.15,1.93,1.15s1.58-.4,1.96-1.21c.38-.81.57-2.01.57-3.6,0-1.8-.2-3.09-.59-3.87-.39-.78-1.04-1.18-1.95-1.18s-1.5.38-1.91,1.15c-.41.77-.61,2.07-.61,3.89Z"/>
        <path d="M1280.5,345.24h1.99v2.19h-1.99v-2.19Z"/>
        <path d="M1292.77,342.21v.81c0,1.14.25,1.96.75,2.45.5.49,1.27.74,2.32.74s1.81-.26,2.33-.79c.52-.53.78-1.25.78-2.14,0-.83-.12-1.43-.37-1.82-.25-.39-.67-.7-1.26-.93l-3.39-1.31c-1.17-.46-1.94-1.03-2.31-1.69-.36-.66-.54-1.48-.54-2.44,0-1.31.42-2.39,1.26-3.24.85-.85,1.94-1.27,3.28-1.27,1.51,0,2.67.37,3.47,1.12.81.74,1.22,1.65,1.22,2.74,0,.25-.01.5-.03.76h-1.87c.02-.17.03-.37.03-.59-.01-.63-.25-1.18-.72-1.66-.46-.48-1.08-.73-1.84-.73-1.03,0-1.77.24-2.25.73-.46.48-.69,1.21-.69,2.2,0,1.1.54,1.87,1.62,2.29l2.98,1.14c1.28.5,2.14,1.06,2.59,1.68.46.62.68,1.48.68,2.58,0,1.5-.43,2.72-1.28,3.63-.86.92-2.12,1.38-3.79,1.38-1.49,0-2.67-.4-3.54-1.21-.87-.81-1.3-2.06-1.3-3.77v-.66h1.87Z"/>
        <path d="M1302.99,340.91c0-1.93.36-3.4,1.09-4.42.73-1.02,1.82-1.53,3.26-1.53s2.45.52,3.17,1.55c.73,1.03,1.1,2.47,1.1,4.34,0,2.3-.33,4.03-.99,5.17-.66,1.15-1.74,1.72-3.25,1.72s-2.67-.53-3.36-1.58c-.68-1.06-1.03-2.82-1.03-5.26ZM1304.78,341.47c0,1.67.2,2.89.6,3.66.41.77,1.05,1.15,1.93,1.15s1.58-.4,1.96-1.21c.38-.81.57-2.01.57-3.6,0-1.8-.2-3.09-.59-3.87-.39-.78-1.04-1.18-1.95-1.18s-1.5.38-1.91,1.15c-.41.77-.61,2.07-.61,3.89Z"/>
        <path d="M1314.47,347.43v-16.42h1.73v5.67c.21-.51.56-.92,1.04-1.23.48-.32,1.01-.48,1.6-.48,1.29,0,2.26.52,2.9,1.56.64,1.03.96,2.39.96,4.08,0,2.34-.29,4.12-.88,5.33-.58,1.2-1.56,1.81-2.95,1.81-1.3,0-2.25-.63-2.83-1.88v1.56h-1.57ZM1316.21,341.62v.75c0,1.55.21,2.59.64,3.12.43.53,1.01.79,1.73.79.92,0,1.54-.44,1.86-1.31.32-.88.48-2.17.48-3.85,0-3.13-.79-4.69-2.37-4.69-.84,0-1.44.34-1.81,1.03-.36.68-.53,1.82-.53,3.42v.75Z"/>
        <path d="M1325.56,347.43v-12.14h1.68v1.9c.63-1.48,1.69-2.22,3.19-2.22.16,0,.31,0,.46.02v1.72c-.15-.04-.39-.06-.73-.06-.91,0-1.61.3-2.12.9-.5.6-.75,1.39-.75,2.38v7.5h-1.73Z"/>
        <path d="M1333.79,341.47v.91c0,1.52.2,2.55.61,3.09.41.54.96.81,1.62.81s1.15-.21,1.51-.63c.36-.43.54-.99.57-1.7,0-.21,0-.41.02-.59h1.57v.42c0,1.12-.32,2.06-.96,2.82-.63.76-1.55,1.14-2.76,1.14-2.64,0-3.97-2.13-3.97-6.39,0-1.97.34-3.53,1.02-4.67.68-1.15,1.65-1.72,2.93-1.72,1.38,0,2.35.45,2.94,1.34.59.89.89,2.62.89,5.17h-5.99ZM1337.99,340.05c0-1.46-.18-2.43-.56-2.91-.36-.48-.83-.72-1.41-.72-.81,0-1.37.28-1.7.84-.33.56-.51,1.49-.54,2.78h4.2Z"/>
        <path d="M1347.83,347.43v-16.42h1.73v16.42h-1.73Z"/>
        <path d="M1352.27,338.55v-.43c0-2.11,1.2-3.16,3.61-3.16,1.09,0,1.92.26,2.48.79.57.53.86,1.23.86,2.1v7.54c0,.52.23.78.71.78.11,0,.23,0,.35-.02v1.25c-.21.09-.47.13-.79.13-.63,0-1.07-.14-1.33-.41-.25-.28-.38-.76-.41-1.43-.26.61-.65,1.11-1.18,1.5-.52.38-1.07.57-1.65.57-2.1,0-3.14-1.17-3.14-3.5,0-1.5.64-2.52,1.93-3.06l3.14-1.27c.28-.11.47-.25.59-.41.11-.16.17-.47.17-.95,0-.93-.17-1.51-.5-1.76s-.82-.37-1.45-.37-1.13.14-1.41.41c-.28.27-.42.7-.42,1.29v.43h-1.57ZM1357.49,340.84c-.61.37-1.51.79-2.73,1.27-.79.33-1.19,1.06-1.19,2.19,0,1.32.58,1.98,1.73,1.98.63,0,1.15-.23,1.56-.71.41-.48.62-1.05.62-1.72v-3.01Z"/>
        <path d="M1366.52,336.75v-1.46h1.68v-3.25h1.73v3.25h2.05v1.46h-2.05v8.27c0,.37.05.62.14.75.1.13.35.19.75.19h1.11v1.46h-1.92c-.71,0-1.18-.14-1.43-.43-.25-.29-.37-.8-.37-1.53v-8.72h-1.68Z"/>
        <path d="M1375.12,341.47v.91c0,1.52.2,2.55.61,3.09.41.54.96.81,1.62.81s1.15-.21,1.51-.63c.36-.43.54-.99.57-1.7,0-.21,0-.41.02-.59h1.57v.42c0,1.12-.32,2.06-.96,2.82-.63.76-1.55,1.14-2.76,1.14-2.64,0-3.97-2.13-3.97-6.39,0-1.97.34-3.53,1.02-4.67.68-1.15,1.65-1.72,2.93-1.72,1.38,0,2.35.45,2.94,1.34.59.89.89,2.62.89,5.17h-5.99ZM1379.32,340.05c0-1.46-.18-2.43-.56-2.91-.36-.48-.83-.72-1.41-.72-.81,0-1.37.28-1.7.84-.33.56-.51,1.49-.54,2.78h4.2Z"/>
        <path d="M1383.14,339.6h5.3v1.82h-5.3v-1.82Z"/>
        <path d="M1171.7,370.5h1.65c-.04,1.47-.38,2.6-1.03,3.41s-1.56,1.21-2.75,1.21c-1.4,0-2.43-.47-3.09-1.4s-.99-2.53-.99-4.79.33-3.93.98-4.99c.66-1.07,1.72-1.6,3.17-1.6,1.13,0,2.01.37,2.65,1.12.64.75.96,1.74.96,2.98h-1.65c0-1.76-.66-2.64-1.97-2.64-.84,0-1.45.39-1.82,1.17-.37.77-.56,2.11-.56,4.03,0,1.75.19,2.97.56,3.65.38.68.96,1.02,1.74,1.02.65,0,1.14-.21,1.49-.62.35-.41.56-1.26.64-2.53Z"/>
        <path d="M1175.83,358.37h1.73v5.67c.78-1.14,1.79-1.71,3.04-1.71,1,0,1.74.26,2.22.79s.73,1.32.73,2.37v9.3h-1.73v-8.81c0-1.46-.59-2.19-1.77-2.19-.81,0-1.43.26-1.85.77-.42.51-.63,1.13-.63,1.85v8.38h-1.73v-16.42Z"/>
        <path d="M1186.86,362.65h1.73v9.45c0,.5.11.88.34,1.15.23.26.65.4,1.25.4.66,0,1.23-.25,1.73-.75s.76-1.36.76-2.57v-7.69h1.73v12.14h-1.73v-1.73c-.57,1.37-1.59,2.05-3.05,2.05-1.85,0-2.77-1.05-2.77-3.16v-9.3Z"/>
        <path d="M1197.8,362.65h1.68v1.56c.76-1.25,1.74-1.88,2.92-1.88,1.25,0,2.21.63,2.88,1.88.85-1.25,1.94-1.88,3.26-1.88.81,0,1.51.25,2.1.74.58.49.88,1.3.88,2.43v9.3h-1.73v-8.81c0-.79-.14-1.35-.43-1.69-.28-.33-.75-.5-1.4-.5-.62,0-1.18.24-1.68.72-.5.47-.75,1.1-.75,1.9v8.38h-1.73v-8.81c0-1.46-.61-2.19-1.83-2.19-.67,0-1.24.22-1.72.67-.47.44-.71,1.19-.71,2.25v8.08h-1.73v-12.14Z"/>
        <path d="M1214.8,374.79v-16.42h1.73v5.67c.21-.51.56-.92,1.04-1.23.48-.32,1.01-.48,1.6-.48,1.29,0,2.26.52,2.9,1.56.64,1.03.96,2.39.96,4.08,0,2.34-.29,4.12-.88,5.33-.58,1.2-1.56,1.81-2.95,1.81-1.3,0-2.25-.63-2.83-1.88v1.56h-1.57ZM1216.53,368.99v.75c0,1.55.21,2.59.64,3.12.43.53,1.01.79,1.73.79.92,0,1.54-.44,1.86-1.31.32-.88.48-2.17.48-3.85,0-3.13-.79-4.69-2.37-4.69-.84,0-1.44.34-1.81,1.03-.36.68-.53,1.82-.53,3.42v.75Z"/>
        <path d="M1225.89,374.79v-12.14h1.68v1.9c.63-1.48,1.69-2.22,3.19-2.22.16,0,.31,0,.46.02v1.72c-.15-.04-.39-.06-.73-.06-.91,0-1.61.3-2.12.9-.5.6-.75,1.39-.75,2.38v7.5h-1.73Z"/>
        <path d="M1234.12,368.84v.91c0,1.52.2,2.55.61,3.09.41.54.96.81,1.62.81s1.15-.21,1.51-.63c.36-.43.54-.99.57-1.7,0-.21,0-.41.02-.59h1.57v.42c0,1.12-.32,2.06-.96,2.82-.63.76-1.55,1.14-2.76,1.14-2.64,0-3.97-2.13-3.97-6.39,0-1.97.34-3.53,1.02-4.67.68-1.15,1.65-1.72,2.93-1.72,1.38,0,2.35.45,2.94,1.34.59.89.89,2.62.89,5.17h-5.99ZM1238.32,367.42c0-1.46-.18-2.43-.56-2.91-.36-.48-.83-.72-1.41-.72-.81,0-1.37.28-1.7.84-.33.56-.51,1.49-.54,2.78h4.2Z"/>
        <path d="M1249.2,371.18c0,.79.13,1.4.41,1.83.28.43.83.64,1.66.64,1.55,0,2.33-.68,2.33-2.03,0-.54-.17-.96-.52-1.26-.34-.31-.96-.62-1.84-.93-1.53-.53-2.52-1.07-2.96-1.6-.44-.53-.66-1.2-.66-2.01,0-1.14.34-2.01,1.03-2.6.68-.59,1.55-.89,2.59-.89,2.49,0,3.73,1.2,3.73,3.59h-1.65c0-.7-.13-1.23-.4-1.58-.26-.36-.78-.54-1.55-.54-1.31,0-1.97.62-1.97,1.86,0,.46.15.86.45,1.18.31.32,1.04.71,2.21,1.15,1.37.53,2.26,1.03,2.68,1.52.43.48.64,1.11.64,1.88,0,1.21-.39,2.14-1.17,2.78-.77.63-1.74.95-2.9.95s-2.08-.3-2.76-.91c-.67-.61-1-1.42-1-2.42v-.61h1.65Z"/>
        <path d="M1259.02,368.84v.91c0,1.52.2,2.55.61,3.09.41.54.96.81,1.62.81s1.15-.21,1.51-.63c.36-.43.54-.99.57-1.7,0-.21,0-.41.02-.59h1.57v.42c0,1.12-.32,2.06-.96,2.82-.63.76-1.55,1.14-2.76,1.14-2.64,0-3.97-2.13-3.97-6.39,0-1.97.34-3.53,1.02-4.67.68-1.15,1.65-1.72,2.93-1.72,1.38,0,2.35.45,2.94,1.34.59.89.89,2.62.89,5.17h-5.99ZM1263.23,367.42c0-1.46-.18-2.43-.56-2.91-.36-.48-.83-.72-1.41-.72-.81,0-1.37.28-1.7.84-.33.56-.51,1.49-.54,2.78h4.2Z"/>
        <path d="M1272.64,365.92v-.43c0-2.11,1.2-3.16,3.61-3.16,1.09,0,1.92.26,2.48.79.57.53.86,1.23.86,2.1v7.54c0,.52.23.78.71.78.11,0,.23,0,.35-.02v1.25c-.21.09-.47.13-.79.13-.63,0-1.07-.14-1.33-.41-.25-.28-.38-.76-.41-1.43-.26.61-.65,1.11-1.18,1.5-.52.38-1.07.57-1.65.57-2.1,0-3.14-1.17-3.14-3.5,0-1.5.64-2.52,1.93-3.06l3.14-1.27c.28-.11.47-.25.59-.41.11-.16.17-.47.17-.95,0-.93-.17-1.51-.5-1.76s-.82-.37-1.45-.37-1.13.14-1.41.41c-.28.27-.42.7-.42,1.29v.43h-1.57ZM1277.86,368.21c-.61.37-1.51.79-2.73,1.27-.79.33-1.19,1.06-1.19,2.19,0,1.32.58,1.98,1.73,1.98.63,0,1.15-.23,1.56-.71.41-.48.62-1.05.62-1.72v-3.01Z"/>
        <path d="M1284.46,364.04c.22-.49.56-.9,1.02-1.22.46-.33.98-.49,1.57-.49,1.25,0,2.23.5,2.92,1.49.7.99,1.05,2.34,1.05,4.06,0,4.82-1.32,7.24-3.97,7.24-1.14,0-1.99-.57-2.53-1.71v5.49h-1.73v-16.25h1.68v1.39ZM1284.51,368.99c0,3.11.77,4.66,2.32,4.66.85,0,1.46-.41,1.83-1.22.38-.81.57-2.13.57-3.94,0-3.13-.79-4.69-2.37-4.69-.8,0-1.39.35-1.77,1.05-.38.7-.57,2.08-.57,4.15Z"/>
        <path d="M1293.72,374.79v-16.42h1.73v16.42h-1.73Z"/>
        <path d="M1298.59,358.4h1.73v2.2h-1.73v-2.2ZM1298.59,362.65h1.73v12.14h-1.73v-12.14Z"/>
        <path d="M1309.06,370.5h1.65c-.04,1.47-.38,2.6-1.03,3.41s-1.56,1.21-2.75,1.21c-1.4,0-2.43-.47-3.09-1.4s-.99-2.53-.99-4.79.33-3.93.98-4.99c.66-1.07,1.72-1.6,3.17-1.6,1.13,0,2.01.37,2.65,1.12.64.75.96,1.74.96,2.98h-1.65c0-1.76-.66-2.64-1.97-2.64-.84,0-1.45.39-1.82,1.17-.37.77-.56,2.11-.56,4.03,0,1.75.19,2.97.56,3.65.38.68.96,1.02,1.74,1.02.65,0,1.14-.21,1.49-.62.35-.41.56-1.26.64-2.53Z"/>
        <path d="M1312.71,368.27c0-1.93.36-3.4,1.09-4.42.73-1.02,1.82-1.53,3.26-1.53s2.45.52,3.17,1.55c.73,1.03,1.1,2.47,1.1,4.34,0,2.3-.33,4.03-.99,5.17-.66,1.15-1.74,1.72-3.25,1.72s-2.67-.53-3.36-1.58c-.68-1.06-1.03-2.82-1.03-5.26ZM1314.5,368.84c0,1.67.2,2.89.6,3.66.41.77,1.05,1.15,1.93,1.15s1.58-.4,1.96-1.21c.38-.81.57-2.01.57-3.6,0-1.8-.2-3.09-.59-3.87-.39-.78-1.04-1.18-1.95-1.18s-1.5.38-1.91,1.15c-.41.77-.61,2.07-.61,3.89ZM1315.86,361.13l1.9-3.08h2.37l-2.82,3.08h-1.45Z"/>
        <path d="M1329.7,362.65h1.73v9.45c0,.5.11.88.34,1.15.23.26.65.4,1.25.4.66,0,1.23-.25,1.73-.75s.76-1.36.76-2.57v-7.69h1.73v12.14h-1.73v-1.73c-.57,1.37-1.59,2.05-3.05,2.05-1.85,0-2.77-1.05-2.77-3.16v-9.3Z"/>
        <path d="M1340.56,374.79v-12.14h1.68v1.39c.78-1.14,1.81-1.71,3.09-1.71.95,0,1.67.26,2.18.78.51.52.77,1.31.77,2.38v9.3h-1.73v-8.81c0-1.46-.59-2.19-1.77-2.19-.72,0-1.31.25-1.79.74-.46.49-.7,1.12-.7,1.88v8.38h-1.73Z"/>
        <path d="M1351.06,365.92v-.43c0-2.11,1.2-3.16,3.61-3.16,1.09,0,1.92.26,2.48.79.57.53.86,1.23.86,2.1v7.54c0,.52.23.78.71.78.11,0,.23,0,.35-.02v1.25c-.21.09-.47.13-.79.13-.63,0-1.07-.14-1.33-.41-.25-.28-.38-.76-.41-1.43-.26.61-.65,1.11-1.18,1.5-.52.38-1.07.57-1.65.57-2.1,0-3.14-1.17-3.14-3.5,0-1.5.64-2.52,1.93-3.06l3.14-1.27c.28-.11.47-.25.59-.41.11-.16.17-.47.17-.95,0-.93-.17-1.51-.5-1.76s-.82-.37-1.45-.37-1.13.14-1.41.41c-.28.27-.42.7-.42,1.29v.43h-1.57ZM1356.28,368.21c-.61.37-1.51.79-2.73,1.27-.79.33-1.19,1.06-1.19,2.19,0,1.32.58,1.98,1.73,1.98.63,0,1.15-.23,1.56-.71.41-.48.62-1.05.62-1.72v-3.01Z"/>
        <path d="M1372.28,370.5h1.65c-.04,1.47-.38,2.6-1.03,3.41s-1.56,1.21-2.75,1.21c-1.4,0-2.43-.47-3.09-1.4s-.99-2.53-.99-4.79.33-3.93.98-4.99c.66-1.07,1.72-1.6,3.17-1.6,1.13,0,2.01.37,2.65,1.12.64.75.96,1.74.96,2.98h-1.65c0-1.76-.66-2.64-1.97-2.64-.84,0-1.45.39-1.82,1.17-.37.77-.56,2.11-.56,4.03,0,1.75.19,2.97.56,3.65.38.68.96,1.02,1.74,1.02.65,0,1.14-.21,1.49-.62.35-.41.56-1.26.64-2.53Z"/>
        <path d="M1376.5,362.65h1.73v9.45c0,.5.11.88.34,1.15.23.26.65.4,1.25.4.66,0,1.23-.25,1.73-.75s.76-1.36.76-2.57v-7.69h1.73v12.14h-1.73v-1.73c-.57,1.37-1.59,2.05-3.05,2.05-1.85,0-2.77-1.05-2.77-3.16v-9.3Z"/>
        <path d="M1387.41,374.79v-16.42h1.73v5.67c.21-.51.56-.92,1.04-1.23.48-.32,1.01-.48,1.6-.48,1.29,0,2.26.52,2.9,1.56.64,1.03.96,2.39.96,4.08,0,2.34-.29,4.12-.88,5.33-.58,1.2-1.56,1.81-2.95,1.81-1.3,0-2.25-.63-2.83-1.88v1.56h-1.57ZM1389.14,368.99v.75c0,1.55.21,2.59.64,3.12.43.53,1.01.79,1.73.79.92,0,1.54-.44,1.86-1.31.32-.88.48-2.17.48-3.85,0-3.13-.79-4.69-2.37-4.69-.84,0-1.44.34-1.81,1.03-.36.68-.53,1.82-.53,3.42v.75Z"/>
        <path d="M1398.28,358.4h1.73v2.2h-1.73v-2.2ZM1398.28,362.65h1.73v12.14h-1.73v-12.14Z"/>
        <path d="M1404.3,368.84v.91c0,1.52.2,2.55.61,3.09.41.54.96.81,1.62.81s1.15-.21,1.51-.63c.36-.43.54-.99.57-1.7,0-.21,0-.41.02-.59h1.57v.42c0,1.12-.32,2.06-.96,2.82-.63.76-1.55,1.14-2.76,1.14-2.64,0-3.97-2.13-3.97-6.39,0-1.97.34-3.53,1.02-4.67.68-1.15,1.65-1.72,2.93-1.72,1.38,0,2.35.45,2.94,1.34.59.89.89,2.62.89,5.17h-5.99ZM1408.5,367.42c0-1.46-.18-2.43-.56-2.91-.36-.48-.83-.72-1.41-.72-.81,0-1.37.28-1.7.84-.33.56-.51,1.49-.54,2.78h4.2Z"/>
        <path d="M1413.08,374.79v-12.14h1.68v1.9c.63-1.48,1.69-2.22,3.19-2.22.16,0,.31,0,.46.02v1.72c-.15-.04-.39-.06-.73-.06-.91,0-1.61.3-2.12.9-.5.6-.75,1.39-.75,2.38v7.5h-1.73Z"/>
        <path d="M1419.61,366.97h5.3v1.82h-5.3v-1.82Z"/>
        <path d="M1164.73,391.48v-1.46h1.68v-3.25h1.73v3.25h2.05v1.46h-2.05v8.27c0,.37.05.62.14.75.1.13.35.19.75.19h1.11v1.46h-1.92c-.71,0-1.18-.14-1.43-.43-.25-.29-.37-.8-.37-1.53v-8.72h-1.68Z"/>
        <path d="M1171.75,393.29v-.43c0-2.11,1.2-3.16,3.61-3.16,1.09,0,1.92.26,2.48.79.57.53.86,1.23.86,2.1v7.54c0,.52.23.78.71.78.11,0,.23,0,.35-.02v1.25c-.21.09-.47.13-.79.13-.63,0-1.07-.14-1.33-.41-.25-.28-.38-.76-.41-1.43-.26.61-.65,1.11-1.18,1.5-.52.38-1.07.57-1.65.57-2.1,0-3.14-1.17-3.14-3.5,0-1.5.64-2.52,1.93-3.06l3.14-1.27c.28-.11.47-.25.59-.41.11-.16.17-.47.17-.95,0-.93-.17-1.51-.5-1.76s-.82-.37-1.45-.37-1.13.14-1.41.41c-.28.27-.42.7-.42,1.29v.43h-1.57ZM1176.97,395.58c-.61.37-1.51.79-2.73,1.27-.79.33-1.19,1.06-1.19,2.19,0,1.32.58,1.98,1.73,1.98.63,0,1.15-.23,1.56-.71.41-.48.62-1.05.62-1.72v-3.01Z"/>
        <path d="M1193.31,391.41v-5.67h1.73v16.42h-1.68v-1.73c-.32.67-.69,1.18-1.12,1.53s-1.05.52-1.87.52c-1.13,0-2-.47-2.63-1.4-.62-.94-.93-2.8-.93-5.59,0-1.67.31-3.06.94-4.15.63-1.1,1.53-1.65,2.69-1.65s2.14.57,2.86,1.71ZM1188.6,396.13c0,1.89.18,3.17.54,3.86.37.68.97,1.03,1.8,1.03.74,0,1.32-.33,1.74-1,.42-.68.63-1.57.63-2.67v-1.56c0-1.62-.19-2.79-.57-3.52-.38-.73-.98-1.1-1.81-1.1-1.56,0-2.34,1.66-2.34,4.97Z"/>
        <path d="M1199.46,396.21v.91c0,1.52.2,2.55.61,3.09.41.54.96.81,1.62.81s1.15-.21,1.51-.63c.36-.43.54-.99.57-1.7,0-.21,0-.41.02-.59h1.57v.42c0,1.12-.32,2.06-.96,2.82-.63.76-1.55,1.14-2.76,1.14-2.64,0-3.97-2.13-3.97-6.39,0-1.97.34-3.53,1.02-4.67.68-1.15,1.65-1.72,2.93-1.72,1.38,0,2.35.45,2.94,1.34.59.89.89,2.62.89,5.17h-5.99ZM1203.66,394.78c0-1.46-.18-2.43-.56-2.91-.36-.48-.83-.72-1.41-.72-.81,0-1.37.28-1.7.84-.33.56-.51,1.49-.54,2.78h4.2Z"/>
        <path d="M1213.57,402.16v-16.42h1.73v5.67c.21-.51.56-.92,1.04-1.23.48-.32,1.01-.48,1.6-.48,1.29,0,2.26.52,2.9,1.56.64,1.03.96,2.39.96,4.08,0,2.34-.29,4.12-.88,5.33-.58,1.2-1.56,1.81-2.95,1.81-1.3,0-2.25-.63-2.83-1.88v1.56h-1.57ZM1215.3,396.36v.75c0,1.55.21,2.59.64,3.12.43.53,1.01.79,1.73.79.92,0,1.54-.44,1.86-1.31.32-.88.48-2.17.48-3.85,0-3.13-.79-4.69-2.37-4.69-.84,0-1.44.34-1.81,1.03-.36.68-.53,1.82-.53,3.42v.75Z"/>
        <path d="M1224.03,393.29v-.43c0-2.11,1.2-3.16,3.61-3.16,1.09,0,1.92.26,2.48.79.57.53.86,1.23.86,2.1v7.54c0,.52.23.78.71.78.11,0,.23,0,.35-.02v1.25c-.21.09-.47.13-.79.13-.63,0-1.07-.14-1.33-.41-.25-.28-.38-.76-.41-1.43-.26.61-.65,1.11-1.18,1.5-.52.38-1.07.57-1.65.57-2.1,0-3.14-1.17-3.14-3.5,0-1.5.64-2.52,1.93-3.06l3.14-1.27c.28-.11.47-.25.59-.41.11-.16.17-.47.17-.95,0-.93-.17-1.51-.5-1.76s-.82-.37-1.45-.37-1.13.14-1.41.41c-.28.27-.42.7-.42,1.29v.43h-1.57ZM1229.24,395.58c-.61.37-1.51.79-2.73,1.27-.79.33-1.19,1.06-1.19,2.19,0,1.32.58,1.98,1.73,1.98.63,0,1.15-.23,1.56-.71.41-.48.62-1.05.62-1.72v-3.01Z"/>
        <path d="M1234.37,402.16v-12.14h1.68v1.9c.63-1.48,1.69-2.22,3.19-2.22.16,0,.31,0,.46.02v1.72c-.15-.04-.39-.06-.73-.06-.91,0-1.61.3-2.12.9-.5.6-.75,1.39-.75,2.38v7.5h-1.73Z"/>
        <path d="M1241.67,402.16v-12.14h1.68v1.9c.63-1.48,1.69-2.22,3.19-2.22.16,0,.31,0,.46.02v1.72c-.15-.04-.39-.06-.73-.06-.91,0-1.61.3-2.12.9-.5.6-.75,1.39-.75,2.38v7.5h-1.73Z"/>
        <path d="M1248.28,395.64c0-1.93.36-3.4,1.09-4.42.73-1.02,1.82-1.53,3.26-1.53s2.45.52,3.17,1.55c.73,1.03,1.1,2.47,1.1,4.34,0,2.3-.33,4.03-.99,5.17-.66,1.15-1.74,1.72-3.25,1.72s-2.67-.53-3.36-1.58c-.68-1.06-1.03-2.82-1.03-5.26ZM1250.07,396.21c0,1.67.2,2.89.6,3.66.41.77,1.05,1.15,1.93,1.15s1.58-.4,1.96-1.21c.38-.81.57-2.01.57-3.6,0-1.8-.2-3.09-.59-3.87-.39-.78-1.04-1.18-1.95-1.18s-1.5.38-1.91,1.15c-.41.77-.61,2.07-.61,3.89Z"/>
        <path d="M1264.28,406.11v-1.52c.4.17.84.26,1.34.26.86,0,1.44-.4,1.74-1.21l.34-1.02-3.93-12.6h1.79l2.82,10.63,2.84-10.63h1.79l-3.93,12.98c-.41,1.28-.87,2.16-1.39,2.62-.51.46-1.22.69-2.11.69-.46,0-.89-.07-1.29-.2Z"/>
        <path d="M1282.03,391.41c.22-.49.56-.9,1.02-1.22.46-.33.98-.49,1.57-.49,1.25,0,2.23.5,2.92,1.49.7.99,1.05,2.34,1.05,4.06,0,4.82-1.32,7.24-3.97,7.24-1.14,0-1.99-.57-2.53-1.71v5.49h-1.73v-16.25h1.68v1.39ZM1282.09,396.36c0,3.11.77,4.66,2.32,4.66.85,0,1.46-.41,1.83-1.22.38-.81.57-2.13.57-3.94,0-3.13-.79-4.69-2.37-4.69-.8,0-1.39.35-1.77,1.05-.38.7-.57,2.08-.57,4.15Z"/>
        <path d="M1290.88,393.29v-.43c0-2.11,1.2-3.16,3.61-3.16,1.09,0,1.92.26,2.48.79.57.53.86,1.23.86,2.1v7.54c0,.52.23.78.71.78.11,0,.23,0,.35-.02v1.25c-.21.09-.47.13-.79.13-.63,0-1.07-.14-1.33-.41-.25-.28-.38-.76-.41-1.43-.26.61-.65,1.11-1.18,1.5-.52.38-1.07.57-1.65.57-2.1,0-3.14-1.17-3.14-3.5,0-1.5.64-2.52,1.93-3.06l3.14-1.27c.28-.11.47-.25.59-.41.11-.16.17-.47.17-.95,0-.93-.17-1.51-.5-1.76s-.82-.37-1.45-.37-1.13.14-1.41.41c-.28.27-.42.7-.42,1.29v.43h-1.57ZM1296.1,395.58c-.61.37-1.51.79-2.73,1.27-.79.33-1.19,1.06-1.19,2.19,0,1.32.58,1.98,1.73,1.98.63,0,1.15-.23,1.56-.71.41-.48.62-1.05.62-1.72v-3.01Z"/>
        <path d="M1301.09,403.5v-13.48h1.73v12.67c0,1.48-.23,2.46-.69,2.93-.46.46-1.25.69-2.38.69v-1.6c.61,0,.98-.1,1.12-.3.15-.21.22-.45.22-.73v-.18ZM1301.09,385.76h1.73v2.2h-1.73v-2.2Z"/>
        <path d="M1305.46,393.29v-.43c0-2.11,1.2-3.16,3.61-3.16,1.09,0,1.92.26,2.48.79.57.53.86,1.23.86,2.1v7.54c0,.52.23.78.71.78.11,0,.23,0,.35-.02v1.25c-.21.09-.47.13-.79.13-.63,0-1.07-.14-1.33-.41-.25-.28-.38-.76-.41-1.43-.26.61-.65,1.11-1.18,1.5-.52.38-1.07.57-1.65.57-2.1,0-3.14-1.17-3.14-3.5,0-1.5.64-2.52,1.93-3.06l3.14-1.27c.28-.11.47-.25.59-.41.11-.16.17-.47.17-.95,0-.93-.17-1.51-.5-1.76s-.82-.37-1.45-.37-1.13.14-1.41.41c-.28.27-.42.7-.42,1.29v.43h-1.57ZM1310.68,395.58c-.61.37-1.51.79-2.73,1.27-.79.33-1.19,1.06-1.19,2.19,0,1.32.58,1.98,1.73,1.98.63,0,1.15-.23,1.56-.71.41-.48.62-1.05.62-1.72v-3.01Z"/>
        <path d="M1315.77,399.97h1.99v2.19h-1.99v-2.19Z"/>
      </g>
      <g>
        <line class="cls-1" x1="1173.93" y1="425.11" x2="1173.93" y2="522.6"/>
        <circle cx="1173.93" cy="522.6" r="3.2"/>
      </g>
      <g>
        <line class="cls-1" x1="658.17" y1="1095.59" x2="438.61" y2="1078.76"/>
        <rect x="652.65" y="1094.74" width="11.06" height="1.7" transform="translate(-484.48 1668.17) rotate(-85.62)"/>
        <rect x="433.09" y="1077.91" width="11.06" height="1.7" transform="translate(-670.54 1433.55) rotate(-85.61)"/>
      </g>
      <g>
        <line class="cls-1" x1="1787.96" y1="1029.38" x2="1787.96" y2="946.03"/>
        <circle cx="1787.96" cy="946.03" r="3.2"/>
      </g>
      <g>
        <polyline class="cls-1" points="1484.53 1049.24 1644.28 1049.24 1644.28 903.09"/>
        <path d="M1647.47,903.09c0-1.77-1.43-3.2-3.2-3.2s-3.2,1.43-3.2,3.2,1.43,3.2,3.2,3.2,3.2-1.43,3.2-3.2Z"/>
      </g>
      <text transform="translate(465.37 1110.79) rotate(4.26)"><tspan class="cls-4"><tspan x="0" y="0">Muros de adobe</tspan></tspan><tspan class="cls-7"><tspan x="-27.79" y="27.37">De 1,2 metros de ancho. </tspan></tspan></text>
      <g>
        <path class="cls-6" d="M1327.77,675.39l7.42-16.42h4.12l.28,16.42h-3.3l.08-4.19h-3.58l-1.72,4.19h-3.3ZM1333.78,668.79h2.63l.19-6.75h-.01l-2.81,6.75Z"/>
        <path class="cls-6" d="M1346.8,670.58h2.84l-.23,1.14c-.56,2.66-2.14,3.99-4.74,3.99s-3.58-1.5-2.95-4.5l.87-4.09c.62-2.91,2.21-4.36,4.77-4.36,1.32,0,2.24.33,2.76.98.53.65.67,1.52.44,2.61l-.21,1.03h-2.84l.29-1.34c.15-.73-.12-1.1-.8-1.1-.73,0-1.23.66-1.51,1.99l-.1.43-.9,4.23c-.27,1.3-.03,1.95.73,1.95.65,0,1.11-.65,1.38-1.95l.21-1Z"/>
        <path class="cls-6" d="M1356.51,670.58h2.84l-.23,1.14c-.56,2.66-2.14,3.99-4.74,3.99s-3.58-1.5-2.95-4.5l.87-4.09c.62-2.91,2.21-4.36,4.77-4.36,1.32,0,2.24.33,2.76.98.53.65.67,1.52.44,2.61l-.21,1.03h-2.84l.29-1.34c.15-.73-.12-1.1-.8-1.1-.73,0-1.23.66-1.51,1.99l-.1.43-.9,4.23c-.27,1.3-.03,1.95.73,1.95.65,0,1.11-.65,1.38-1.95l.21-1Z"/>
        <path class="cls-6" d="M1364.38,669.81l-.38,1.77c-.14.67-.12,1.16.03,1.48.17.31.51.47,1.03.47.89,0,1.46-.56,1.7-1.69l.13-.58h2.84c-.63,2.96-2.26,4.45-4.89,4.45-1.58,0-2.65-.39-3.21-1.17-.56-.78-.66-2.06-.28-3.85l.71-3.35c.66-3.06,2.38-4.6,5.17-4.6,1.42,0,2.43.32,3.02.95.59.63.66,2.04.19,4.21l-.4,1.89h-5.65ZM1364.84,667.62h2.81l.25-1.17c.12-.57.09-.97-.08-1.19-.18-.23-.53-.34-1.06-.34s-.92.15-1.17.45c-.24.3-.43.8-.58,1.5l-.16.75Z"/>
        <path class="cls-6" d="M1371.7,671.26h2.84c-.09.27-.15.52-.21.76-.21,1,.08,1.51.89,1.51s1.33-.36,1.48-1.09c.08-.43,0-.77-.24-1-.24-.24-.55-.51-.95-.83l-1.36-1.13c-1.19-.98-1.62-2.23-1.29-3.76.42-1.97,2.01-2.95,4.77-2.95,1.38,0,2.32.33,2.82,1,.51.67.61,1.7.31,3.1h-2.84c.19-.87.18-1.41-.01-1.61-.19-.21-.48-.31-.88-.31-.78,0-1.24.34-1.38,1.02-.06.31-.02.58.13.8.16.21.42.47.8.78l1.76,1.41c1.12.91,1.56,1.98,1.29,3.22-.5,2.37-2.09,3.55-4.78,3.55s-3.88-1.3-3.33-3.89c.05-.24.1-.43.16-.56Z"/>
        <path class="cls-6" d="M1382.13,670.04l.3-1.42c.52-2.44,1.22-4.03,2.09-4.77.88-.73,2.05-1.1,3.52-1.1s2.55.38,3.05,1.15c.51.77.53,2.24.06,4.4l-.31,1.48c-.5,2.37-1.14,3.94-1.92,4.74-.78.79-1.98,1.19-3.62,1.19s-2.76-.4-3.21-1.2c-.44-.8-.42-2.29.04-4.47ZM1385.64,666.91l-.96,4.53c-.18.86-.18,1.42-.02,1.69.16.26.53.4,1.11.4s1.02-.15,1.26-.44c.24-.29.45-.84.62-1.65l.96-4.54c.28-1.31-.05-1.97-.99-1.97-.55,0-.98.15-1.29.46-.31.31-.54.81-.68,1.52Z"/>
        <path class="cls-6" d="M1326.3,690.58c.73-1.14,1.67-1.71,2.8-1.71.97,0,1.65.31,2.04.94.39.62.42,1.73.08,3.31l-.95,4.52c-.59,2.79-1.86,4.18-3.82,4.18-.63,0-1.13-.11-1.49-.34-.35-.24-.6-.63-.74-1.2l-1.13,5.32h-2.84l3.48-16.42h2.84l-.29,1.39ZM1325.68,693.49l-.83,3.94c-.31,1.47-.01,2.2.91,2.2.84,0,1.41-.74,1.72-2.21l.95-4.51c.14-.66.14-1.14-.02-1.43-.16-.29-.42-.44-.8-.44-.94,0-1.58.82-1.93,2.45Z"/>
        <path class="cls-6" d="M1331.95,701.5l2.61-12.32h2.75l-.46,2.18c.47-.77.99-1.38,1.56-1.83.58-.45,1.23-.67,1.96-.67l-.72,3.35c-.21-.02-.41-.03-.6-.03-1.53,0-2.44.69-2.73,2.07l-1.54,7.25h-2.84Z"/>
        <path class="cls-6" d="M1342.12,689.19h2.84l-2.61,12.32h-2.84l2.61-12.32ZM1343,685.05h2.84l-.55,2.6h-2.84l.55-2.6Z"/>
        <path class="cls-6" d="M1345.32,701.5l2.61-12.32h2.84l-.29,1.39c.79-1.14,1.79-1.71,3-1.71.85,0,1.48.26,1.89.79.41.52.51,1.29.3,2.32l-2.02,9.52h-2.84l1.79-8.46c.15-.72.17-1.23.05-1.54-.11-.31-.39-.46-.86-.46-.94,0-1.57.73-1.87,2.2l-1.75,8.25h-2.85Z"/>
        <path class="cls-6" d="M1361.97,696.69h2.84l-.23,1.14c-.56,2.66-2.14,3.99-4.74,3.99s-3.58-1.5-2.95-4.5l.87-4.09c.62-2.91,2.21-4.36,4.77-4.36,1.32,0,2.24.33,2.76.98.53.65.67,1.52.44,2.61l-.21,1.03h-2.84l.29-1.34c.15-.73-.12-1.1-.8-1.1-.73,0-1.23.66-1.51,1.99l-.1.43-.9,4.23c-.27,1.3-.03,1.95.73,1.95.65,0,1.11-.65,1.38-1.95l.21-1Z"/>
        <path class="cls-6" d="M1368.87,689.19h2.84l-2.61,12.32h-2.84l2.61-12.32ZM1369.74,685.05h2.84l-.55,2.6h-2.84l.55-2.6Z"/>
        <path class="cls-6" d="M1377.37,690.58c.73-1.14,1.67-1.71,2.8-1.71.97,0,1.65.31,2.04.94.39.62.42,1.73.08,3.31l-.95,4.52c-.59,2.79-1.86,4.18-3.82,4.18-.63,0-1.13-.11-1.49-.34-.35-.24-.6-.63-.74-1.2l-1.13,5.32h-2.84l3.48-16.42h2.84l-.29,1.39ZM1376.75,693.49l-.83,3.94c-.31,1.47-.01,2.2.91,2.2.84,0,1.41-.74,1.72-2.21l.95-4.51c.14-.66.14-1.14-.02-1.43-.16-.29-.42-.44-.8-.44-.94,0-1.58.82-1.93,2.45Z"/>
        <path class="cls-6" d="M1384.55,692.8c.31-1.46.87-2.48,1.7-3.06.84-.58,1.99-.88,3.46-.88s2.42.27,2.93.81c.53.54.66,1.44.4,2.69l-1.58,7.45c-.13.61-.17,1.17-.13,1.68h-2.72c-.06-.27-.05-.59.03-.97.02-.11.07-.25.14-.42-.55.62-1.07,1.06-1.56,1.33-.48.26-.95.38-1.41.38-2.17,0-3-1.22-2.49-3.67.24-1.11.69-1.95,1.36-2.52.68-.57,1.73-1.13,3.17-1.67.79-.28,1.37-.53,1.75-.76.37-.23.6-.57.7-1.02.08-.42.06-.72-.09-.89-.14-.17-.46-.26-.97-.26-.64,0-1.09.12-1.36.36-.26.24-.47.71-.61,1.39h-2.71ZM1389.63,695.02l-1.91,1.1c-.53.29-.89.56-1.08.81-.2.24-.35.62-.46,1.12-.22,1.05.12,1.58,1.03,1.58.96,0,1.58-.64,1.85-1.91l.57-2.71Z"/>
        <path class="cls-6" d="M1394.23,701.5l3.48-16.42h2.85l-3.48,16.42h-2.85Z"/>
      </g>
      <text class="cls-2" transform="translate(1596.3 756.52)"><tspan x="0" y="0">Primera </tspan><tspan x="16.13" y="26.12">Nave</tspan></text>
      <text transform="translate(1286.75 1059.07)"><tspan class="cls-3"><tspan x="0" y="0">Remache de cobre </tspan></tspan><tspan class="cls-5"><tspan x="0" y="27.37">Una muestra de la técnica </tspan></tspan><tspan class="cls-5"><tspan x="0" y="54.73">atacameña que se mantie</tspan><tspan x="218.18" y="54.73">-</tspan></tspan><tspan class="cls-5"><tspan x="0" y="82.1">ne hasta nuestros tiempos.</tspan></tspan></text>
      <text transform="translate(1695.6 1059.52)"><tspan class="cls-3"><tspan x="0" y="0">Construcción inicial</tspan></tspan><tspan class="cls-5"><tspan x="-22.35" y="27.37">Se le realiza una ampliación, </tspan></tspan><tspan class="cls-5"><tspan x="-22.04" y="54.73">que constituye la iglesia que </tspan></tspan><tspan class="cls-5"><tspan x="-8.06" y="82.1">actualmente conocemos.</tspan></tspan></text>
    </g>
  </g>
</svg>