<?xml version="1.0" encoding="UTF-8"?>
<svg id="Capa_2" xmlns="http://www.w3.org/2000/svg" xmlns:xlink="http://www.w3.org/1999/xlink" viewBox="0 0 2113 1171.73">
  <defs>
    <style>
      .cls-1 {
        fill: none;
        stroke: #000;
        stroke-linecap: round;
        stroke-linejoin: round;
        stroke-width: 2.13px;
      }

      .cls-2 {
        font-family: Helvetica-Condensed-BoldObl, 'Helvetica Condensed';
        font-style: oblique;
      }

      .cls-2, .cls-3, .cls-4 {
        font-weight: 700;
      }

      .cls-2, .cls-4 {
        font-size: 36px;
      }

      .cls-2, .cls-5 {
        fill: #90414b;
      }

      .cls-3 {
        font-size: 35.46px;
      }

      .cls-3, .cls-4 {
        font-family: Helvetica-Condensed-Bold, 'Helvetica Condensed';
      }

      .cls-6 {
        font-family: Helvetica-Condensed, 'Helvetica Condensed';
        font-size: 34px;
      }
    </style>
  </defs>
  <g id="ubicacion">
    <image width="2113" height="1170" href="ilustracion.png"/>
  </g>
  <g id="INFO">
    <g>
      <text transform="translate(1164.52 272.45)"><tspan class="cls-4"><tspan x="0" y="0">Techumbre y puertas</tspan></tspan><tspan class="cls-6"><tspan x="0" y="34">Se utilizó amarras de </tspan></tspan><tspan class="cls-6"><tspan x="0" y="68">cuero. Sobre la </tspan></tspan><tspan class="cls-6"><tspan x="0" y="102">techumbre se aplicó una </tspan></tspan><tspan class="cls-6"><tspan x="0" y="129.37">cubierta de barro y paja.</tspan></tspan></text>
      <g>
        <line class="cls-1" x1="1173.93" y1="425.11" x2="1173.93" y2="522.6"/>
        <circle cx="1173.93" cy="522.6" r="3.2"/>
      </g>
      <g>
        <line class="cls-1" x1="658.17" y1="1089.59" x2="438.61" y2="1072.76"/>
        <rect x="652.65" y="1088.74" width="11.06" height="1.7" transform="translate(-478.5 1662.63) rotate(-85.62)"/>
        <rect x="433.09" y="1071.91" width="11.06" height="1.7" transform="translate(-664.56 1428.01) rotate(-85.61)"/>
      </g>
      <g>
        <line class="cls-1" x1="1843.96" y1="1029.38" x2="1843.96" y2="946.03"/>
        <circle cx="1843.96" cy="946.03" r="3.2"/>
      </g>
      <g>
        <polyline class="cls-1" points="1484.53 1049.24 1644.28 1049.24 1644.28 903.09"/>
        <path d="M1647.47,903.09c0-1.77-1.43-3.2-3.2-3.2s-3.2,1.43-3.2,3.2,1.43,3.2,3.2,3.2,3.2-1.43,3.2-3.2Z"/>
      </g>
      <text transform="translate(434.65 1109.78) rotate(4.26) scale(.96 1)"><tspan class="cls-3"><tspan x="0" y="0">Muros de adobe</tspan></tspan><tspan class="cls-6"><tspan x="-52.31" y="31.29">De 1,2 metros de ancho. </tspan></tspan></text>
      <g>
        <path class="cls-5" d="M1307.53,675.39l12.19-27h6.77l.46,27h-5.43l.14-6.89h-5.88l-2.83,6.89h-5.43ZM1317.42,664.54h4.32l.31-11.09h-.02l-4.62,11.09Z"/>
        <path class="cls-5" d="M1338.81,667.48h4.67l-.39,1.88c-.92,4.37-3.52,6.56-7.8,6.56s-5.89-2.47-4.85-7.4l1.42-6.73c1.02-4.78,3.63-7.17,7.84-7.17,2.17,0,3.68.54,4.54,1.62.87,1.07,1.11,2.5.72,4.29l-.35,1.69h-4.67l.47-2.2c.25-1.21-.19-1.81-1.32-1.81-1.19,0-2.02,1.09-2.48,3.27l-.16.7-1.48,6.96c-.45,2.13-.05,3.2,1.2,3.2,1.07,0,1.83-1.07,2.27-3.2l.35-1.65Z"/>
        <path class="cls-5" d="M1354.79,667.48h4.67l-.39,1.88c-.92,4.37-3.52,6.56-7.8,6.56s-5.89-2.47-4.85-7.4l1.42-6.73c1.02-4.78,3.63-7.17,7.84-7.17,2.17,0,3.68.54,4.54,1.62.87,1.07,1.11,2.5.72,4.29l-.35,1.69h-4.67l.47-2.2c.25-1.21-.19-1.81-1.32-1.81-1.19,0-2.02,1.09-2.48,3.27l-.16.7-1.48,6.96c-.45,2.13-.05,3.2,1.2,3.2,1.07,0,1.83-1.07,2.27-3.2l.35-1.65Z"/>
        <path class="cls-5" d="M1367.73,666.21l-.63,2.92c-.22,1.1-.21,1.91.05,2.43.28.52.84.77,1.69.77,1.47,0,2.4-.93,2.79-2.78l.21-.95h4.67c-1.03,4.88-3.71,7.31-8.04,7.31-2.59,0-4.35-.64-5.28-1.92-.93-1.28-1.08-3.39-.46-6.33l1.16-5.5c1.08-5.04,3.91-7.56,8.5-7.56,2.33,0,3.99.52,4.96,1.56.97,1.04,1.08,3.35.32,6.93l-.65,3.11h-9.29ZM1368.49,662.62h4.62l.4-1.92c.2-.94.15-1.59-.14-1.95-.29-.38-.88-.56-1.74-.56s-1.52.25-1.92.74c-.39.49-.7,1.31-.95,2.46l-.26,1.23Z"/>
        <path class="cls-5" d="M1379.76,668.6h4.67c-.14.45-.25.86-.34,1.25-.35,1.65.13,2.48,1.46,2.48s2.18-.6,2.44-1.79c.14-.71.01-1.27-.39-1.65-.39-.39-.91-.84-1.57-1.37l-2.23-1.86c-1.96-1.61-2.67-3.67-2.13-6.19.69-3.23,3.31-4.85,7.85-4.85,2.26,0,3.81.55,4.65,1.65.83,1.1,1,2.8.51,5.1h-4.67c.3-1.43.3-2.31-.02-2.65-.3-.34-.79-.51-1.44-.51-1.28,0-2.03.56-2.27,1.67-.11.52-.04.96.21,1.32.26.35.7.78,1.32,1.28l2.9,2.32c1.85,1.49,2.56,3.25,2.12,5.29-.82,3.89-3.44,5.84-7.86,5.84s-6.39-2.13-5.48-6.4c.08-.4.17-.7.27-.91Z"/>
        <path class="cls-5" d="M1396.92,666.6l.49-2.34c.85-4.02,2-6.63,3.44-7.84,1.44-1.21,3.37-1.81,5.78-1.81s4.19.63,5.01,1.9c.83,1.27.87,3.68.11,7.24l-.51,2.43c-.82,3.89-1.87,6.49-3.16,7.79-1.28,1.3-3.26,1.95-5.96,1.95s-4.54-.66-5.27-1.97c-.71-1.32-.69-3.77.07-7.35ZM1402.68,661.45l-1.58,7.45c-.29,1.42-.3,2.34-.04,2.78s.88.65,1.83.65,1.68-.24,2.08-.72c.4-.48.74-1.38,1.02-2.71l1.58-7.47c.46-2.16-.09-3.23-1.63-3.23-.9,0-1.61.25-2.13.76-.5.5-.88,1.34-1.13,2.5Z"/>
        <path class="cls-5" d="M1305.11,693.42c1.21-1.88,2.75-2.81,4.61-2.81,1.6,0,2.72.52,3.36,1.55.64,1.02.69,2.84.14,5.45l-1.56,7.44c-.97,4.58-3.07,6.87-6.28,6.87-1.04,0-1.86-.19-2.44-.56-.57-.39-.98-1.04-1.21-1.97l-1.86,8.75h-4.67l5.72-27h4.67l-.48,2.29ZM1304.09,698.22l-1.37,6.49c-.52,2.41-.02,3.62,1.49,3.62,1.37,0,2.32-1.21,2.84-3.64l1.56-7.42c.23-1.09.22-1.88-.04-2.36s-.7-.72-1.32-.72c-1.55,0-2.61,1.34-3.17,4.03Z"/>
        <path class="cls-5" d="M1314.39,711.39l4.29-20.25h4.53l-.76,3.59c.77-1.27,1.63-2.27,2.56-3.01.95-.74,2.03-1.11,3.23-1.11l-1.18,5.5c-.34-.04-.67-.05-.98-.05-2.51,0-4.01,1.14-4.49,3.41l-2.53,11.92h-4.67Z"/>
        <path class="cls-5" d="M1331.13,691.14h4.67l-4.29,20.25h-4.67l4.29-20.25ZM1332.57,684.33h4.67l-.91,4.27h-4.67l.91-4.27Z"/>
        <path class="cls-5" d="M1336.38,711.39l4.29-20.25h4.67l-.48,2.29c1.3-1.88,2.95-2.81,4.94-2.81,1.4,0,2.43.43,3.1,1.3.68.86.85,2.13.49,3.81l-3.32,15.66h-4.67l2.95-13.9c.25-1.18.28-2.03.09-2.53-.18-.5-.65-.76-1.41-.76-1.55,0-2.58,1.21-3.08,3.62l-2.88,13.57h-4.69Z"/>
        <path class="cls-5" d="M1363.77,703.48h4.67l-.39,1.88c-.92,4.37-3.52,6.56-7.8,6.56s-5.89-2.47-4.85-7.4l1.42-6.73c1.02-4.78,3.63-7.17,7.84-7.17,2.17,0,3.68.54,4.54,1.62.87,1.07,1.11,2.5.72,4.29l-.35,1.69h-4.67l.47-2.2c.25-1.21-.19-1.81-1.32-1.81-1.19,0-2.02,1.09-2.48,3.27l-.16.7-1.48,6.96c-.45,2.13-.05,3.2,1.2,3.2,1.07,0,1.83-1.07,2.27-3.2l.35-1.65Z"/>
        <path class="cls-5" d="M1375.11,691.14h4.67l-4.29,20.25h-4.67l4.29-20.25ZM1376.55,684.33h4.67l-.91,4.27h-4.67l.91-4.27Z"/>
        <path class="cls-5" d="M1389.08,693.42c1.21-1.88,2.75-2.81,4.61-2.81,1.6,0,2.72.52,3.36,1.55.64,1.02.69,2.84.14,5.45l-1.56,7.44c-.97,4.58-3.07,6.87-6.28,6.87-1.04,0-1.86-.19-2.44-.56-.57-.39-.98-1.04-1.21-1.97l-1.86,8.75h-4.67l5.72-27h4.67l-.48,2.29ZM1388.06,698.22l-1.37,6.49c-.52,2.41-.02,3.62,1.49,3.62,1.37,0,2.32-1.21,2.84-3.64l1.56-7.42c.23-1.09.22-1.88-.04-2.36s-.7-.72-1.32-.72c-1.55,0-2.61,1.34-3.17,4.03Z"/>
        <path class="cls-5" d="M1400.9,697.08c.5-2.4,1.43-4.08,2.79-5.03,1.38-.96,3.28-1.44,5.69-1.44s3.97.45,4.81,1.34c.87.89,1.08,2.37.65,4.43l-2.6,12.25c-.21,1.01-.28,1.93-.21,2.76h-4.47c-.09-.45-.08-.98.05-1.6.04-.18.12-.4.24-.69-.9,1.02-1.76,1.75-2.57,2.18-.79.42-1.56.63-2.32.63-3.58,0-4.94-2.01-4.1-6.03.39-1.83,1.13-3.21,2.24-4.15,1.11-.94,2.85-1.85,5.21-2.74,1.3-.46,2.26-.87,2.87-1.25.61-.39.99-.94,1.14-1.67.14-.69.09-1.18-.14-1.46-.22-.28-.75-.42-1.59-.42-1.05,0-1.79.2-2.24.6-.44.4-.77,1.16-1.01,2.29h-4.46ZM1409.25,700.73l-3.14,1.81c-.87.48-1.46.93-1.78,1.34-.33.4-.58,1.01-.76,1.85-.36,1.73.2,2.6,1.69,2.6,1.58,0,2.6-1.05,3.04-3.15l.94-4.45Z"/>
        <path class="cls-5" d="M1416.81,711.39l5.72-27h4.69l-5.72,27h-4.69Z"/>
      </g>
      <text class="cls-2" transform="translate(1571.42 756.52)"><tspan x="0" y="0">Primera </tspan><tspan x="26.52" y="36">Nave</tspan></text>
      <text transform="translate(1286.75 1067.6)"><tspan class="cls-4"><tspan x="0" y="0">Remache de </tspan></tspan><tspan class="cls-4"><tspan x="0" y="27.37">cobre </tspan></tspan><tspan class="cls-6"><tspan x="0" y="61.37">Una muestra de la </tspan></tspan><tspan class="cls-6"><tspan x="0" y="95.37">técnica atacameña.</tspan></tspan></text>
      <text transform="translate(1696.93 1072.05)"><tspan class="cls-4"><tspan x="0" y="0">Construcción inicial</tspan></tspan><tspan class="cls-6"><tspan x="-43.81" y="34">Se le realiza una ampliación, </tspan></tspan><tspan class="cls-6"><tspan x="-62.66" y="68">que constituye la iglesia actual.</tspan></tspan></text>
    </g>
  </g>
</svg>