<?xml version="1.0" encoding="UTF-8"?>
<svg id="Capa_2" xmlns="http://www.w3.org/2000/svg" xmlns:xlink="http://www.w3.org/1999/xlink" viewBox="0 0 845.86 1034">
  <defs>
    <style>
      
@import url("https://fonts.googleapis.com/css2?family=Barlow+Semi+Condensed");
      
      .cls-1 {
        fill: #90414b;
        font-family: "Barlow Semi Condensed", Helvetica, Arial, sans-serif;
        font-weight: 700;
      }

      .cls-1, .cls-2, .cls-3 {
        font-size: 36.87px;
      }

      .cls-1, .cls-3 {
        font-style: oblique;
      }

      .cls-2, .cls-4 {
        font-family: "Barlow Semi Condensed", Helvetica, Arial, sans-serif;
      }

      .cls-5 {
        fill: none;
        stroke: #000;
        stroke-linecap: round;
        stroke-linejoin: round;
        stroke-width: 2.83px;
      }

      .cls-4 {
        font-size: 27.65px;
      }

      .cls-3 {
        font-family: "Barlow Semi Condensed", Helvetica, Arial, sans-serif;
      }
    </style>
  </defs>
  <g id="Diseño">
    <text class="cls-4" transform="translate(657.97 30.66)"><tspan x="0" y="0">N</tspan></text>
    <text class="cls-2" transform="translate(139.34 32.52)"><tspan x="0" y="0">Planta actual</tspan></text>
    <text class="cls-2" transform="translate(396.95 32.52)"><tspan x="0" y="0">Planta original</tspan></text>
    <text class="cls-3" transform="translate(361.71 340.94)"><tspan x="0" y="0">Crucero</tspan></text>
    <text class="cls-3" transform="translate(369.9 246.53)"><tspan x="0" y="0">Abside</tspan></text>
    <text class="cls-3" transform="translate(699.76 340.94)"><tspan x="0" y="0">Transepto</tspan></text>
    <text class="cls-3" transform="translate(383.23 558.5)"><tspan x="0" y="0">Nave</tspan><tspan x="-13.31" y="43.98">central</tspan></text>
    <g>
      <path d="M688.77,742.73l12.49-27.65h6.94l.47,27.65h-5.56l.14-7.06h-6.03l-2.89,7.06h-5.56ZM698.89,731.62h4.43l.32-11.36h-.02l-4.73,11.36Z"/>
      <path d="M720.8,734.63h4.79l-.4,1.93c-.95,4.48-3.61,6.71-7.99,6.71s-6.03-2.53-4.96-7.58l1.46-6.9c1.04-4.9,3.72-7.34,8.03-7.34,2.22,0,3.77.55,4.64,1.66.89,1.09,1.13,2.56.74,4.39l-.36,1.73h-4.79l.49-2.25c.25-1.24-.2-1.85-1.35-1.85-1.22,0-2.07,1.12-2.54,3.35l-.16.72-1.51,7.13c-.46,2.18-.05,3.28,1.22,3.28,1.1,0,1.88-1.09,2.33-3.28l.36-1.69Z"/>
      <path d="M737.16,734.63h4.79l-.4,1.93c-.95,4.48-3.61,6.71-7.99,6.71s-6.03-2.53-4.96-7.58l1.46-6.9c1.04-4.9,3.72-7.34,8.03-7.34,2.22,0,3.77.55,4.64,1.66.89,1.09,1.13,2.56.74,4.39l-.36,1.73h-4.79l.49-2.25c.25-1.24-.2-1.85-1.35-1.85-1.22,0-2.07,1.12-2.54,3.35l-.16.72-1.51,7.13c-.46,2.18-.05,3.28,1.22,3.28,1.1,0,1.88-1.09,2.33-3.28l.36-1.69Z"/>
      <path d="M750.42,733.33l-.65,2.99c-.23,1.13-.21,1.96.05,2.48.29.53.87.79,1.73.79,1.51,0,2.46-.95,2.86-2.84l.22-.97h4.78c-1.06,4.99-3.8,7.49-8.24,7.49-2.66,0-4.46-.65-5.41-1.96-.95-1.31-1.1-3.47-.47-6.48l1.19-5.63c1.11-5.16,4.01-7.74,8.71-7.74,2.39,0,4.09.53,5.08,1.6,1,1.07,1.1,3.43.32,7.09l-.67,3.19h-9.51ZM751.19,729.66h4.73l.41-1.96c.2-.96.16-1.63-.14-2-.3-.38-.9-.58-1.79-.58s-1.56.25-1.97.76c-.4.5-.72,1.34-.97,2.52l-.27,1.26Z"/>
      <path d="M762.74,735.78h4.78c-.14.46-.26.88-.34,1.28-.36,1.69.14,2.54,1.49,2.54s2.24-.61,2.5-1.84c.14-.73.01-1.3-.4-1.69-.4-.4-.93-.86-1.6-1.4l-2.29-1.91c-2-1.64-2.73-3.76-2.18-6.34.71-3.31,3.39-4.97,8.04-4.97,2.32,0,3.9.56,4.76,1.69.85,1.13,1.03,2.87.52,5.22h-4.78c.31-1.46.31-2.37-.02-2.72-.31-.35-.8-.52-1.48-.52-1.31,0-2.08.57-2.32,1.71-.11.53-.04.98.22,1.35.26.36.71.8,1.35,1.31l2.97,2.38c1.89,1.52,2.62,3.33,2.18,5.42-.84,3.98-3.52,5.98-8.05,5.98s-6.54-2.18-5.62-6.55c.08-.41.17-.72.27-.94Z"/>
      <path d="M780.31,733.73l.5-2.39c.88-4.12,2.05-6.79,3.53-8.03,1.48-1.24,3.45-1.85,5.92-1.85s4.29.65,5.13,1.94c.85,1.3.89,3.77.11,7.42l-.52,2.48c-.84,3.98-1.92,6.64-3.24,7.98-1.31,1.33-3.34,2-6.1,2s-4.66-.67-5.4-2.02c-.73-1.36-.71-3.86.07-7.53ZM786.21,728.45l-1.62,7.63c-.3,1.45-.31,2.4-.04,2.84.28.44.9.67,1.87.67s1.72-.25,2.13-.74c.41-.49.76-1.42,1.05-2.77l1.62-7.65c.47-2.21-.09-3.31-1.67-3.31-.92,0-1.65.26-2.18.77-.52.52-.9,1.37-1.15,2.56Z"/>
      <path d="M686.28,768.31c1.24-1.92,2.81-2.88,4.72-2.88,1.63,0,2.78.53,3.44,1.58.66,1.04.71,2.9.14,5.58l-1.6,7.62c-1,4.69-3.14,7.04-6.43,7.04-1.07,0-1.9-.19-2.5-.58-.59-.4-1-1.07-1.24-2.02l-1.9,8.97h-4.79l5.86-27.65h4.78l-.5,2.34ZM685.24,773.23l-1.4,6.64c-.53,2.47-.02,3.71,1.53,3.71,1.41,0,2.38-1.24,2.9-3.73l1.6-7.6c.24-1.12.23-1.92-.04-2.41s-.71-.74-1.35-.74c-1.59,0-2.67,1.38-3.25,4.12Z"/>
      <path d="M695.79,786.71l4.4-20.74h4.64l-.78,3.67c.79-1.3,1.67-2.32,2.63-3.08.97-.76,2.07-1.13,3.31-1.13l-1.21,5.63c-.35-.04-.68-.05-1.01-.05-2.58,0-4.11,1.17-4.6,3.49l-2.59,12.21h-4.79Z"/>
      <path d="M712.93,765.97h4.78l-4.4,20.74h-4.79l4.4-20.74ZM714.41,759h4.79l-.93,4.38h-4.79l.93-4.38Z"/>
      <path d="M718.31,786.71l4.4-20.74h4.79l-.5,2.34c1.34-1.92,3.02-2.88,5.06-2.88,1.43,0,2.49.44,3.18,1.33.7.88.87,2.18.51,3.91l-3.4,16.04h-4.79l3.02-14.24c.25-1.21.28-2.08.09-2.59-.18-.52-.66-.77-1.44-.77-1.59,0-2.64,1.24-3.16,3.71l-2.95,13.9h-4.8Z"/>
      <path d="M746.36,778.61h4.79l-.4,1.93c-.95,4.48-3.61,6.71-7.99,6.71s-6.03-2.53-4.96-7.58l1.46-6.9c1.04-4.9,3.72-7.34,8.03-7.34,2.22,0,3.77.55,4.64,1.66.89,1.09,1.13,2.56.74,4.39l-.36,1.73h-4.79l.49-2.25c.25-1.24-.2-1.85-1.35-1.85-1.22,0-2.07,1.12-2.54,3.35l-.16.72-1.51,7.13c-.46,2.18-.05,3.28,1.22,3.28,1.1,0,1.88-1.09,2.33-3.28l.36-1.69Z"/>
      <path d="M757.97,765.97h4.78l-4.4,20.74h-4.79l4.4-20.74ZM759.45,759h4.79l-.93,4.38h-4.79l.93-4.38Z"/>
      <path d="M772.28,768.31c1.24-1.92,2.81-2.88,4.72-2.88,1.63,0,2.78.53,3.44,1.58.66,1.04.71,2.9.14,5.58l-1.6,7.62c-1,4.69-3.14,7.04-6.43,7.04-1.07,0-1.9-.19-2.5-.58-.59-.4-1-1.07-1.24-2.02l-1.9,8.97h-4.79l5.86-27.65h4.78l-.5,2.34ZM771.24,773.23l-1.4,6.64c-.53,2.47-.02,3.71,1.53,3.71,1.41,0,2.38-1.24,2.9-3.73l1.6-7.6c.24-1.12.23-1.92-.04-2.41s-.71-.74-1.35-.74c-1.59,0-2.67,1.38-3.25,4.12Z"/>
      <path d="M784.39,772.06c.52-2.46,1.47-4.18,2.86-5.15,1.42-.98,3.36-1.48,5.83-1.48s4.07.46,4.93,1.37c.89.91,1.11,2.42.67,4.54l-2.66,12.55c-.21,1.03-.29,1.97-.21,2.83h-4.58c-.1-.46-.08-1,.05-1.64.04-.18.12-.41.24-.7-.92,1.04-1.8,1.79-2.63,2.23-.8.43-1.6.65-2.38.65-3.66,0-5.06-2.06-4.2-6.17.4-1.87,1.16-3.29,2.29-4.25,1.14-.96,2.92-1.9,5.34-2.81,1.33-.47,2.31-.89,2.94-1.28.62-.4,1.02-.97,1.17-1.71.14-.71.1-1.21-.14-1.49-.23-.29-.77-.43-1.63-.43-1.07,0-1.84.2-2.29.61-.45.41-.79,1.19-1.03,2.34h-4.56ZM792.94,775.8l-3.21,1.85c-.89.49-1.5.95-1.82,1.37-.34.41-.6,1.04-.78,1.89-.37,1.78.2,2.66,1.73,2.66,1.62,0,2.66-1.07,3.12-3.22l.97-4.55Z"/>
      <path d="M800.69,786.71l5.86-27.65h4.8l-5.86,27.65h-4.8Z"/>
    </g>
    <g>
      <line x1="674.71" y1="758.65" x2="602.06" y2="758.48"/>
      <g>
        <line class="cls-5" x1="674.71" y1="758.65" x2="602.06" y2="758.48"/>
        <polygon points="603.73 752.83 593.93 758.46 603.7 764.14 603.73 752.83"/>
      </g>
    </g>
    <g>
      <line class="cls-5" x1="590.78" y1="328.33" x2="695.29" y2="328.33"/>
      <circle cx="590.78" cy="328.33" r="4.26"/>
    </g>
    <g>
      <text class="cls-3" transform="translate(0 340.94)"><tspan x="0" y="0">Transepto</tspan></text>
      <g>
        <line class="cls-5" x1="253.57" y1="329.12" x2="149.01" y2="329.12"/>
        <path d="M253.57,324.86c2.35,0,4.26,1.91,4.26,4.26s-1.91,4.26-4.26,4.26-4.26-1.91-4.26-4.26,1.91-4.26,4.26-4.26Z"/>
      </g>
    </g>
    <text class="cls-1" transform="translate(539.78 558.42)"><tspan x="0" y="0">Primera </tspan><tspan x="27.16" y="43.98">Nave</tspan></text>
    <image width="605" height="1034" transform="translate(104.93)" href="planta.png"/>
  </g>
</svg>
